{"glyphs":{"0":{"ha":979,"x_min":0,"x_max":0,"o":"m 67 404 b 458 -18 67 142 215 -18 b 968 625 751 -18 968 256 b 576 1047 968 888 819 1047 b 67 404 283 1047 67 774 z m 283 410 b 564 854 283 665 403 854 b 751 619 688 854 751 774 b 471 175 751 364 632 175 b 283 410 347 175 283 256 z "},"1":{"ha":593,"x_min":0,"x_max":0,"o":"m 350 836 l 218 0 l 432 0 l 594 1028 l 156 1028 l 124 836 z "},"2":{"ha":821,"x_min":0,"x_max":0,"o":"m 725 0 l 757 206 l 413 206 l 549 300 b 833 732 739 431 833 574 b 494 1047 833 925 701 1047 b 92 667 271 1047 117 901 l 310 667 b 476 857 318 783 382 857 b 607 722 557 857 607 806 b 435 451 607 613 564 546 l 35 163 l 8 0 z "},"3":{"ha":776,"x_min":0,"x_max":0,"o":"m 368 486 b 522 339 465 486 522 432 b 369 175 522 238 464 175 b 225 336 279 175 225 235 l 10 336 b 372 -18 10 115 147 -18 b 749 340 597 -18 749 126 b 529 638 749 488 661 600 l 792 853 l 819 1028 l 165 1028 l 135 836 l 510 836 l 254 626 l 232 486 z "},"4":{"ha":893,"x_min":0,"x_max":0,"o":"m 832 183 l 863 375 l 739 375 l 842 1028 l 565 1028 l 32 375 l 1 183 l 503 183 l 474 0 l 679 0 l 708 183 z m 272 375 l 596 772 l 533 375 z "},"5":{"ha":838,"x_min":0,"x_max":0,"o":"m 407 -18 b 801 372 635 -18 801 147 b 489 707 801 574 676 707 b 351 671 433 707 389 696 l 415 825 l 804 825 l 836 1028 l 292 1028 l 78 478 l 271 439 b 426 526 308 497 361 526 b 571 353 513 526 571 457 b 404 175 571 247 503 175 b 260 336 314 175 260 235 l 44 336 b 407 -18 44 115 182 -18 z "},"6":{"ha":879,"x_min":0,"x_max":0,"o":"m 274 765 b 42 313 161 640 42 496 b 397 -18 42 129 190 -18 b 842 414 654 -18 842 165 b 524 717 842 588 711 717 b 494 714 514 717 504 715 l 778 1028 l 510 1028 z m 272 333 b 461 535 272 450 354 535 b 611 383 554 535 611 471 b 425 181 611 268 531 181 b 272 333 332 181 272 246 z "},"7":{"ha":761,"x_min":0,"x_max":0,"o":"m 115 1028 l 83 825 l 590 825 l 121 0 l 364 0 l 829 825 l 861 1028 z "},"8":{"ha":893,"x_min":0,"x_max":0,"o":"m 38 289 b 421 -17 38 107 192 -17 b 842 324 672 -17 842 121 b 710 540 842 424 790 504 b 879 785 813 578 879 671 b 531 1047 879 939 736 1047 b 149 739 306 1047 149 921 b 243 565 149 664 182 604 b 38 289 124 528 38 417 z m 344 733 b 514 860 344 810 411 860 b 674 747 608 860 674 814 b 514 625 674 674 610 625 b 344 733 410 625 344 667 z m 253 306 b 438 449 253 393 324 449 b 628 319 553 449 628 397 b 433 172 628 229 553 172 b 253 306 329 172 253 229 z "},"9":{"ha":879,"x_min":0,"x_max":0,"o":"m 658 263 b 890 715 771 388 890 532 b 535 1046 890 899 742 1046 b 90 614 278 1046 90 863 b 408 311 90 440 221 311 b 438 314 418 311 428 313 l 154 0 l 422 0 z m 660 694 b 471 493 660 578 578 493 b 321 644 378 493 321 557 b 507 847 321 760 401 847 b 660 694 600 847 660 782 z "},"A":{"ha":956,"x_min":0,"x_max":0,"o":"m 193 0 l 301 219 l 629 219 l 665 0 l 888 0 l 692 1028 l 479 1028 l -43 0 z m 506 638 b 547 735 522 671 539 711 b 558 638 547 711 554 663 l 597 403 l 393 403 z "},"Á":{"ha":956,"x_min":0,"x_max":0,"o":"m 861 1324 l 669 1324 l 519 1097 l 675 1097 z m 193 0 l 301 219 l 629 219 l 665 0 l 888 0 l 692 1028 l 479 1028 l -43 0 z m 506 638 b 547 735 522 671 539 711 b 558 638 547 711 554 663 l 597 403 l 393 403 z "},"Ă":{"ha":956,"x_min":0,"x_max":0,"o":"m 715 1326 b 615 1219 704 1260 674 1219 b 526 1326 557 1219 526 1258 l 383 1326 b 606 1083 383 1176 460 1083 b 861 1326 764 1083 838 1178 z m 193 0 l 301 219 l 629 219 l 665 0 l 888 0 l 692 1028 l 479 1028 l -43 0 z m 506 638 b 547 735 522 671 539 711 b 558 638 547 711 554 663 l 597 403 l 393 403 z "},"Â":{"ha":956,"x_min":0,"x_max":0,"o":"m 528 1097 l 628 1242 l 683 1097 l 832 1097 l 736 1338 l 536 1338 l 365 1097 z m 193 0 l 301 219 l 629 219 l 665 0 l 888 0 l 692 1028 l 479 1028 l -43 0 z m 506 638 b 547 735 522 671 539 711 b 558 638 547 711 554 663 l 597 403 l 393 403 z "},"Ä":{"ha":956,"x_min":0,"x_max":0,"o":"m 467 1107 b 589 1229 532 1107 589 1164 b 500 1319 589 1282 553 1319 b 378 1196 433 1319 378 1264 b 467 1107 378 1142 413 1107 z m 733 1107 b 856 1229 800 1107 856 1164 b 767 1319 856 1283 819 1319 b 646 1196 701 1319 646 1264 b 733 1107 646 1142 679 1107 z m 193 0 l 301 219 l 629 219 l 665 0 l 888 0 l 692 1028 l 479 1028 l -43 0 z m 506 638 b 547 735 522 671 539 711 b 558 638 547 711 554 663 l 597 403 l 393 403 z "},"À":{"ha":956,"x_min":0,"x_max":0,"o":"m 669 1097 l 593 1324 l 415 1324 l 529 1097 z m 193 0 l 301 219 l 629 219 l 665 0 l 888 0 l 692 1028 l 479 1028 l -43 0 z m 506 638 b 547 735 522 671 539 711 b 558 638 547 711 554 663 l 597 403 l 393 403 z "},"Ā":{"ha":956,"x_min":0,"x_max":0,"o":"m 408 1135 l 801 1135 l 824 1276 l 431 1276 z m 193 0 l 301 219 l 629 219 l 665 0 l 888 0 l 692 1028 l 479 1028 l -43 0 z m 506 638 b 547 735 522 671 539 711 b 558 638 547 711 554 663 l 597 403 l 393 403 z "},"Ą":{"ha":956,"x_min":0,"x_max":0,"o":"m 193 0 l 301 219 l 629 219 l 665 0 l 764 0 b 615 -182 675 -32 615 -104 b 750 -304 615 -250 664 -304 b 831 -290 782 -304 806 -300 l 853 -157 b 808 -167 836 -164 818 -167 b 760 -121 778 -167 760 -146 b 886 0 760 -75 808 -26 l 888 0 l 692 1028 l 479 1028 l -43 0 z m 506 638 b 547 735 522 671 539 711 b 558 638 547 711 554 663 l 597 403 l 393 403 z "},"Å":{"ha":956,"x_min":0,"x_max":0,"o":"m 604 1074 b 819 1288 728 1074 819 1165 b 644 1456 819 1386 746 1456 b 432 1238 524 1456 432 1363 b 604 1074 432 1140 501 1074 z m 615 1179 b 544 1253 572 1179 544 1208 b 635 1350 544 1310 582 1350 b 707 1278 678 1350 707 1321 b 615 1179 707 1221 669 1179 z m 193 0 l 301 219 l 629 219 l 665 0 l 888 0 l 692 1028 l 479 1028 l -43 0 z m 506 638 b 547 735 522 671 539 711 b 558 638 547 711 554 663 l 597 403 l 393 403 z "},"Ǻ":{"ha":956,"x_min":0,"x_max":0,"o":"m 901 1564 l 710 1564 l 560 1338 l 715 1338 z m 193 0 l 301 219 l 629 219 l 665 0 l 888 0 l 704 958 b 796 1136 761 997 796 1061 b 621 1304 796 1235 722 1304 b 408 1086 500 1304 408 1211 b 451 972 408 1040 424 1001 l -43 0 z m 592 1028 b 521 1101 549 1028 521 1057 b 611 1199 521 1158 558 1199 b 683 1126 654 1199 683 1169 b 592 1028 683 1069 646 1028 z m 506 638 b 547 735 522 671 539 711 b 558 638 547 711 554 663 l 597 403 l 393 403 z "},"Ã":{"ha":956,"x_min":0,"x_max":0,"o":"m 461 1100 b 525 1186 469 1161 486 1186 b 718 1100 590 1186 615 1100 b 889 1322 819 1100 879 1178 l 768 1322 b 706 1236 761 1264 746 1236 b 511 1322 633 1236 610 1322 b 342 1100 414 1322 347 1235 z m 193 0 l 301 219 l 629 219 l 665 0 l 888 0 l 692 1028 l 479 1028 l -43 0 z m 506 638 b 547 735 522 671 539 711 b 558 638 547 711 554 663 l 597 403 l 393 403 z "},"Æ":{"ha":1313,"x_min":0,"x_max":0,"o":"m -50 0 l 196 0 l 321 235 l 579 235 l 542 0 l 1179 0 l 1211 203 l 790 203 l 825 422 l 1199 422 l 1229 614 l 856 614 l 889 825 l 1310 825 l 1342 1028 l 517 1028 z m 417 418 l 633 825 l 672 825 l 608 418 z "},"Ǽ":{"ha":1313,"x_min":0,"x_max":0,"o":"m 1153 1324 l 961 1324 l 811 1097 l 967 1097 z m -50 0 l 196 0 l 321 235 l 579 235 l 542 0 l 1179 0 l 1211 203 l 790 203 l 825 422 l 1199 422 l 1229 614 l 856 614 l 889 825 l 1310 825 l 1342 1028 l 517 1028 z m 417 418 l 633 825 l 672 825 l 608 418 z "},"B":{"ha":907,"x_min":0,"x_max":0,"o":"m 53 0 l 471 0 b 856 317 713 0 856 118 b 735 503 856 407 811 474 b 908 774 842 547 908 649 b 633 1028 908 928 800 1028 l 215 1028 z m 576 836 b 689 735 649 836 689 799 b 544 604 689 654 633 604 l 365 604 l 401 836 z m 507 419 b 632 317 589 419 632 383 b 475 192 632 236 576 192 l 300 192 l 336 419 z "},"C":{"ha":1064,"x_min":0,"x_max":0,"o":"m 519 -17 b 1024 363 768 -17 944 114 l 785 363 b 528 196 738 243 653 196 b 306 449 388 196 306 299 b 611 832 306 668 422 832 b 825 668 724 832 808 782 l 1057 668 b 639 1044 1049 892 894 1044 b 74 435 314 1044 74 792 b 519 -17 74 171 236 -17 z "},"Ć":{"ha":1064,"x_min":0,"x_max":0,"o":"m 910 1324 l 718 1324 l 568 1097 l 724 1097 z m 519 -17 b 1024 363 768 -17 944 114 l 785 363 b 528 196 738 243 653 196 b 306 449 388 196 306 299 b 611 832 306 668 422 832 b 825 668 724 832 808 782 l 1057 668 b 639 1044 1049 892 894 1044 b 74 435 314 1044 74 792 b 519 -17 74 171 236 -17 z "},"Č":{"ha":1064,"x_min":0,"x_max":0,"o":"m 557 1100 l 757 1100 l 928 1340 l 765 1340 l 665 1196 l 610 1340 l 461 1340 z m 519 -17 b 1024 363 768 -17 944 114 l 785 363 b 528 196 738 243 653 196 b 306 449 388 196 306 299 b 611 832 306 668 422 832 b 825 668 724 832 808 782 l 1057 668 b 639 1044 1049 892 894 1044 b 74 435 314 1044 74 792 b 519 -17 74 171 236 -17 z "},"Ç":{"ha":1064,"x_min":0,"x_max":0,"o":"m 363 -293 b 478 -319 388 -307 431 -319 b 664 -162 590 -319 664 -258 b 560 -58 664 -92 607 -58 b 515 -65 540 -58 526 -61 l 547 -17 b 1024 363 782 -7 947 124 l 785 363 b 528 196 738 243 653 196 b 306 449 388 196 306 299 b 611 832 306 668 422 832 b 825 668 724 832 808 782 l 1057 668 b 639 1044 1049 892 894 1044 b 74 435 314 1044 74 792 b 469 -15 74 188 217 7 l 425 -85 l 436 -137 b 504 -126 456 -131 479 -126 b 557 -171 538 -126 557 -142 b 471 -232 557 -210 522 -232 b 376 -206 438 -232 407 -221 z "},"Ĉ":{"ha":1064,"x_min":0,"x_max":0,"o":"m 576 1097 l 676 1242 l 732 1097 l 881 1097 l 785 1338 l 585 1338 l 414 1097 z m 519 -17 b 1024 363 768 -17 944 114 l 785 363 b 528 196 738 243 653 196 b 306 449 388 196 306 299 b 611 832 306 668 422 832 b 825 668 724 832 808 782 l 1057 668 b 639 1044 1049 892 894 1044 b 74 435 314 1044 74 792 b 519 -17 74 171 236 -17 z "},"Ċ":{"ha":1064,"x_min":0,"x_max":0,"o":"m 647 1107 b 776 1236 717 1107 776 1167 b 683 1331 776 1293 739 1331 b 554 1201 614 1331 554 1272 b 647 1107 554 1143 590 1107 z m 519 -17 b 1024 363 768 -17 944 114 l 785 363 b 528 196 738 243 653 196 b 306 449 388 196 306 299 b 611 832 306 668 422 832 b 825 668 724 832 808 782 l 1057 668 b 639 1044 1049 892 894 1044 b 74 435 314 1044 74 792 b 519 -17 74 171 236 -17 z "},"D":{"ha":1046,"x_min":0,"x_max":0,"o":"m 444 0 b 1021 558 785 0 1021 229 b 581 1028 1021 829 833 1028 l 215 1028 l 53 0 z m 540 825 b 789 558 690 825 789 719 b 456 203 789 342 658 203 l 301 203 l 400 825 z "},"Ð":{"ha":1046,"x_min":0,"x_max":0,"o":"m 31 425 l 119 425 l 53 0 l 444 0 b 1021 558 785 0 1021 229 b 581 1028 1021 829 833 1028 l 215 1028 l 149 603 l 58 603 z m 538 425 l 565 603 l 365 603 l 400 825 l 540 825 b 789 558 690 825 789 719 b 456 203 789 342 658 203 l 301 203 l 336 425 z "},"Ď":{"ha":1046,"x_min":0,"x_max":0,"o":"m 485 1100 l 685 1100 l 856 1340 l 693 1340 l 593 1196 l 538 1340 l 389 1340 z m 444 0 b 1021 558 785 0 1021 229 b 581 1028 1021 829 833 1028 l 215 1028 l 53 0 z m 540 825 b 789 558 690 825 789 719 b 456 203 789 342 658 203 l 301 203 l 400 825 z "},"Đ":{"ha":1046,"x_min":0,"x_max":0,"o":"m 31 425 l 119 425 l 53 0 l 444 0 b 1021 558 785 0 1021 229 b 581 1028 1021 829 833 1028 l 215 1028 l 149 603 l 58 603 z m 538 425 l 565 603 l 365 603 l 400 825 l 540 825 b 789 558 690 825 789 719 b 456 203 789 342 658 203 l 301 203 l 336 425 z "},"E":{"ha":825,"x_min":0,"x_max":0,"o":"m 692 0 l 724 203 l 301 203 l 336 422 l 710 422 l 740 614 l 367 614 l 400 825 l 822 825 l 854 1028 l 215 1028 l 53 0 z "},"É":{"ha":825,"x_min":0,"x_max":0,"o":"m 808 1324 l 617 1324 l 467 1097 l 622 1097 z m 692 0 l 724 203 l 301 203 l 336 422 l 710 422 l 740 614 l 367 614 l 400 825 l 822 825 l 854 1028 l 215 1028 l 53 0 z "},"Ĕ":{"ha":825,"x_min":0,"x_max":0,"o":"m 663 1326 b 563 1219 651 1260 621 1219 b 474 1326 504 1219 474 1258 l 331 1326 b 553 1083 331 1176 407 1083 b 808 1326 711 1083 785 1178 z m 692 0 l 724 203 l 301 203 l 336 422 l 710 422 l 740 614 l 367 614 l 400 825 l 822 825 l 854 1028 l 215 1028 l 53 0 z "},"Ě":{"ha":825,"x_min":0,"x_max":0,"o":"m 456 1100 l 656 1100 l 826 1340 l 664 1340 l 564 1196 l 508 1340 l 360 1340 z m 692 0 l 724 203 l 301 203 l 336 422 l 710 422 l 740 614 l 367 614 l 400 825 l 822 825 l 854 1028 l 215 1028 l 53 0 z "},"Ê":{"ha":825,"x_min":0,"x_max":0,"o":"m 475 1097 l 575 1242 l 631 1097 l 779 1097 l 683 1338 l 483 1338 l 313 1097 z m 692 0 l 724 203 l 301 203 l 336 422 l 710 422 l 740 614 l 367 614 l 400 825 l 822 825 l 854 1028 l 215 1028 l 53 0 z "},"Ë":{"ha":825,"x_min":0,"x_max":0,"o":"m 414 1107 b 536 1229 479 1107 536 1164 b 447 1319 536 1282 500 1319 b 325 1196 381 1319 325 1264 b 414 1107 325 1142 360 1107 z m 681 1107 b 803 1229 747 1107 803 1164 b 714 1319 803 1283 767 1319 b 593 1196 649 1319 593 1264 b 681 1107 593 1142 626 1107 z m 692 0 l 724 203 l 301 203 l 336 422 l 710 422 l 740 614 l 367 614 l 400 825 l 822 825 l 854 1028 l 215 1028 l 53 0 z "},"Ė":{"ha":825,"x_min":0,"x_max":0,"o":"m 546 1107 b 675 1236 615 1107 675 1167 b 582 1331 675 1293 638 1331 b 453 1201 513 1331 453 1272 b 546 1107 453 1143 489 1107 z m 692 0 l 724 203 l 301 203 l 336 422 l 710 422 l 740 614 l 367 614 l 400 825 l 822 825 l 854 1028 l 215 1028 l 53 0 z "},"È":{"ha":825,"x_min":0,"x_max":0,"o":"m 617 1097 l 540 1324 l 363 1324 l 476 1097 z m 692 0 l 724 203 l 301 203 l 336 422 l 710 422 l 740 614 l 367 614 l 400 825 l 822 825 l 854 1028 l 215 1028 l 53 0 z "},"Ē":{"ha":825,"x_min":0,"x_max":0,"o":"m 356 1135 l 749 1135 l 771 1276 l 378 1276 z m 692 0 l 724 203 l 301 203 l 336 422 l 710 422 l 740 614 l 367 614 l 400 825 l 822 825 l 854 1028 l 215 1028 l 53 0 z "},"Ę":{"ha":825,"x_min":0,"x_max":0,"o":"m 568 0 b 419 -182 479 -32 419 -104 b 554 -304 419 -250 468 -304 b 635 -290 586 -304 610 -300 l 657 -157 b 613 -167 640 -164 622 -167 b 564 -121 582 -167 564 -146 b 690 0 564 -75 613 -26 l 692 0 l 724 203 l 301 203 l 336 422 l 710 422 l 740 614 l 367 614 l 400 825 l 822 825 l 854 1028 l 215 1028 l 53 0 z "},"F":{"ha":794,"x_min":0,"x_max":0,"o":"m 689 403 l 719 600 l 364 600 l 400 825 l 822 825 l 854 1028 l 215 1028 l 53 0 l 269 0 l 333 403 z "},"G":{"ha":1097,"x_min":0,"x_max":0,"o":"m 611 836 b 822 678 733 836 803 781 l 1057 678 b 639 1044 1043 904 882 1044 b 74 435 311 1044 74 789 b 519 -17 74 160 247 -17 b 781 88 626 -17 729 26 l 776 0 l 963 0 l 1056 589 l 583 589 l 553 397 l 824 397 b 553 189 796 264 700 189 b 306 449 399 189 306 286 b 611 836 306 676 429 836 z "},"Ğ":{"ha":1097,"x_min":0,"x_max":0,"o":"m 760 1326 b 660 1219 749 1260 718 1219 b 571 1326 601 1219 571 1258 l 428 1326 b 650 1083 428 1176 504 1083 b 906 1326 808 1083 882 1178 z m 611 836 b 822 678 733 836 803 781 l 1057 678 b 639 1044 1043 904 882 1044 b 74 435 311 1044 74 789 b 519 -17 74 160 247 -17 b 781 88 626 -17 729 26 l 776 0 l 963 0 l 1056 589 l 583 589 l 553 397 l 824 397 b 553 189 796 264 700 189 b 306 449 399 189 306 286 b 611 836 306 676 429 836 z "},"Ĝ":{"ha":1097,"x_min":0,"x_max":0,"o":"m 572 1097 l 672 1242 l 728 1097 l 876 1097 l 781 1338 l 581 1338 l 410 1097 z m 611 836 b 822 678 733 836 803 781 l 1057 678 b 639 1044 1043 904 882 1044 b 74 435 311 1044 74 789 b 519 -17 74 160 247 -17 b 781 88 626 -17 729 26 l 776 0 l 963 0 l 1056 589 l 583 589 l 553 397 l 824 397 b 553 189 796 264 700 189 b 306 449 399 189 306 286 b 611 836 306 676 429 836 z "},"Ģ":{"ha":1097,"x_min":0,"x_max":0,"o":"m 611 836 b 822 678 733 836 803 781 l 1057 678 b 639 1044 1043 904 882 1044 b 74 435 311 1044 74 789 b 519 -17 74 160 247 -17 b 781 88 626 -17 729 26 l 776 0 l 963 0 l 1056 589 l 583 589 l 553 397 l 824 397 b 553 189 796 264 700 189 b 306 449 399 189 306 286 b 611 836 306 676 429 836 z m 594 -146 b 508 -49 594 -89 561 -49 b 393 -157 443 -49 393 -96 b 463 -228 393 -197 419 -228 b 503 -219 479 -228 493 -225 b 385 -272 493 -261 456 -281 l 375 -336 b 594 -146 507 -353 594 -265 z "},"Ġ":{"ha":1097,"x_min":0,"x_max":0,"o":"m 643 1107 b 772 1236 713 1107 772 1167 b 679 1331 772 1293 735 1331 b 550 1201 610 1331 550 1272 b 643 1107 550 1143 586 1107 z m 611 836 b 822 678 733 836 803 781 l 1057 678 b 639 1044 1043 904 882 1044 b 74 435 311 1044 74 789 b 519 -17 74 160 247 -17 b 781 88 626 -17 729 26 l 776 0 l 963 0 l 1056 589 l 583 589 l 553 397 l 824 397 b 553 189 796 264 700 189 b 306 449 399 189 306 286 b 611 836 306 676 429 836 z "},"H":{"ha":1043,"x_min":0,"x_max":0,"o":"m 269 0 l 336 417 l 731 417 l 664 0 l 881 0 l 1043 1028 l 826 1028 l 761 618 l 367 618 l 432 1028 l 215 1028 l 53 0 z "},"Ħ":{"ha":1043,"x_min":0,"x_max":0,"o":"m 269 0 l 336 417 l 731 417 l 664 0 l 881 0 l 997 735 l 1100 735 l 1129 918 l 1026 918 l 1043 1028 l 826 1028 l 808 918 l 414 918 l 432 1028 l 215 1028 l 199 918 l 96 918 l 67 735 l 169 735 l 53 0 z m 367 618 l 385 735 l 779 735 l 761 618 z "},"I":{"ha":432,"x_min":0,"x_max":0,"o":"m 432 1028 l 215 1028 l 53 0 l 269 0 z "},"Í":{"ha":432,"x_min":0,"x_max":0,"o":"m 597 1324 l 406 1324 l 256 1097 l 411 1097 z m 432 1028 l 215 1028 l 53 0 l 269 0 z "},"Î":{"ha":432,"x_min":0,"x_max":0,"o":"m 264 1097 l 364 1242 l 419 1097 l 568 1097 l 472 1338 l 272 1338 l 101 1097 z m 432 1028 l 215 1028 l 53 0 l 269 0 z "},"Ï":{"ha":432,"x_min":0,"x_max":0,"o":"m 203 1107 b 325 1229 268 1107 325 1164 b 236 1319 325 1282 289 1319 b 114 1196 169 1319 114 1264 b 203 1107 114 1142 149 1107 z m 469 1107 b 592 1229 536 1107 592 1164 b 503 1319 592 1283 556 1319 b 382 1196 438 1319 382 1264 b 469 1107 382 1142 415 1107 z m 432 1028 l 215 1028 l 53 0 l 269 0 z "},"İ":{"ha":432,"x_min":0,"x_max":0,"o":"m 335 1107 b 464 1236 404 1107 464 1167 b 371 1331 464 1293 426 1331 b 242 1201 301 1331 242 1272 b 335 1107 242 1143 278 1107 z m 432 1028 l 215 1028 l 53 0 l 269 0 z "},"Ì":{"ha":432,"x_min":0,"x_max":0,"o":"m 406 1097 l 329 1324 l 151 1324 l 265 1097 z m 432 1028 l 215 1028 l 53 0 l 269 0 z "},"Ī":{"ha":432,"x_min":0,"x_max":0,"o":"m 144 1135 l 538 1135 l 560 1276 l 167 1276 z m 432 1028 l 215 1028 l 53 0 l 269 0 z "},"Į":{"ha":432,"x_min":0,"x_max":0,"o":"m 146 0 b -3 -182 57 -32 -3 -104 b 132 -304 -3 -250 46 -304 b 213 -290 164 -304 188 -300 l 235 -157 b 190 -167 218 -164 200 -167 b 142 -121 160 -167 142 -146 b 268 0 142 -75 190 -26 l 269 0 l 432 1028 l 215 1028 l 53 0 z "},"Ĩ":{"ha":432,"x_min":0,"x_max":0,"o":"m 197 1100 b 261 1186 206 1161 222 1186 b 454 1100 326 1186 351 1100 b 625 1322 556 1100 615 1178 l 504 1322 b 442 1236 497 1264 482 1236 b 247 1322 369 1236 346 1322 b 78 1100 150 1322 83 1235 z m 432 1028 l 215 1028 l 53 0 l 269 0 z "},"J":{"ha":785,"x_min":0,"x_max":0,"o":"m 24 296 b 328 -18 4 104 122 -18 b 675 288 528 -18 643 83 l 793 1028 l 576 1028 l 461 301 b 338 185 449 221 411 185 b 233 296 265 185 226 226 l 240 365 l 31 365 z "},"Ĵ":{"ha":785,"x_min":0,"x_max":0,"o":"m 625 1097 l 725 1242 l 781 1097 l 929 1097 l 833 1338 l 633 1338 l 463 1097 z m 24 296 b 328 -18 4 104 122 -18 b 675 288 528 -18 643 83 l 793 1028 l 576 1028 l 461 301 b 338 185 449 221 411 185 b 233 296 265 185 226 226 l 240 365 l 31 365 z "},"K":{"ha":965,"x_min":0,"x_max":0,"o":"m 432 1028 l 215 1028 l 53 0 l 269 0 l 301 199 l 496 414 l 656 0 l 896 0 l 658 592 l 1056 1028 l 789 1028 l 356 547 z "},"Ķ":{"ha":965,"x_min":0,"x_max":0,"o":"m 432 1028 l 215 1028 l 53 0 l 269 0 l 301 199 l 496 414 l 656 0 l 896 0 l 658 592 l 1056 1028 l 789 1028 l 356 547 z m 515 -146 b 429 -49 515 -89 482 -49 b 314 -157 364 -49 314 -96 b 383 -228 314 -197 340 -228 b 424 -219 400 -228 414 -225 b 306 -272 414 -261 376 -281 l 296 -336 b 515 -146 428 -353 515 -265 z "},"L":{"ha":760,"x_min":0,"x_max":0,"o":"m 432 1028 l 215 1028 l 53 0 l 669 0 l 701 203 l 301 203 z "},"Ĺ":{"ha":760,"x_min":0,"x_max":0,"o":"m 594 1297 l 403 1297 l 253 1071 l 408 1071 z m 432 1028 l 215 1028 l 53 0 l 669 0 l 701 203 l 301 203 z "},"Ľ":{"ha":760,"x_min":0,"x_max":0,"o":"m 432 1028 l 215 1028 l 53 0 l 669 0 l 701 203 l 301 203 z m 454 757 l 576 757 l 663 1026 l 497 1026 z "},"Ļ":{"ha":760,"x_min":0,"x_max":0,"o":"m 432 1028 l 215 1028 l 53 0 l 669 0 l 701 203 l 301 203 z m 456 -146 b 369 -49 456 -89 422 -49 b 254 -157 304 -49 254 -96 b 324 -228 254 -197 281 -228 b 364 -219 340 -228 354 -225 b 246 -272 354 -261 317 -281 l 236 -336 b 456 -146 368 -353 456 -265 z "},"Ŀ":{"ha":760,"x_min":0,"x_max":0,"o":"m 432 1028 l 215 1028 l 53 0 l 669 0 l 701 203 l 301 203 z m 538 389 b 653 503 601 389 653 442 b 538 618 653 564 600 618 b 421 503 475 618 421 567 b 538 389 421 442 475 389 z "},"Ł":{"ha":760,"x_min":0,"x_max":0,"o":"m 22 335 l 113 375 l 53 0 l 669 0 l 701 203 l 301 203 l 346 482 l 515 558 l 542 721 l 371 643 l 432 1028 l 215 1028 l 138 538 l 49 497 z "},"M":{"ha":1243,"x_min":0,"x_max":0,"o":"m 264 0 l 311 297 b 340 575 325 381 340 483 l 465 0 l 664 0 l 971 575 b 917 297 958 528 938 432 l 869 0 l 1081 0 l 1243 1028 l 1021 1028 l 596 254 l 418 1028 l 215 1028 l 53 0 z "},"N":{"ha":1072,"x_min":0,"x_max":0,"o":"m 268 0 l 372 661 l 694 0 l 910 0 l 1072 1028 l 857 1028 l 753 367 l 431 1028 l 215 1028 l 53 0 z "},"Ń":{"ha":1072,"x_min":0,"x_max":0,"o":"m 924 1324 l 732 1324 l 582 1097 l 738 1097 z m 268 0 l 372 661 l 694 0 l 910 0 l 1072 1028 l 857 1028 l 753 367 l 431 1028 l 215 1028 l 53 0 z "},"Ň":{"ha":1072,"x_min":0,"x_max":0,"o":"m 571 1100 l 771 1100 l 942 1340 l 779 1340 l 679 1196 l 624 1340 l 475 1340 z m 268 0 l 372 661 l 694 0 l 910 0 l 1072 1028 l 857 1028 l 753 367 l 431 1028 l 215 1028 l 53 0 z "},"Ņ":{"ha":1072,"x_min":0,"x_max":0,"o":"m 268 0 l 372 661 l 694 0 l 910 0 l 1072 1028 l 857 1028 l 753 367 l 431 1028 l 215 1028 l 53 0 z m 563 -146 b 476 -49 563 -89 529 -49 b 361 -157 411 -49 361 -96 b 431 -228 361 -197 388 -228 b 471 -219 447 -228 461 -225 b 353 -272 461 -261 424 -281 l 343 -336 b 563 -146 475 -353 563 -265 z "},"Ŋ":{"ha":1071,"x_min":0,"x_max":0,"o":"m 599 -356 b 892 -108 761 -356 867 -262 l 1072 1028 l 857 1028 l 753 363 l 431 1028 l 215 1028 l 53 0 l 268 0 l 371 663 l 700 -12 l 688 -83 b 596 -164 678 -137 658 -164 b 532 -151 575 -164 551 -158 l 469 -335 b 599 -356 515 -350 553 -356 z "},"Ñ":{"ha":1072,"x_min":0,"x_max":0,"o":"m 524 1100 b 588 1186 532 1161 549 1186 b 781 1100 653 1186 678 1100 b 951 1322 882 1100 942 1178 l 831 1322 b 768 1236 824 1264 808 1236 b 574 1322 696 1236 672 1322 b 404 1100 476 1322 410 1235 z m 268 0 l 372 661 l 694 0 l 910 0 l 1072 1028 l 857 1028 l 753 367 l 431 1028 l 215 1028 l 53 0 z "},"O":{"ha":1090,"x_min":0,"x_max":0,"o":"m 1069 593 b 621 1044 1069 861 889 1044 b 72 433 307 1044 72 778 b 519 -17 72 165 251 -17 b 1069 593 833 -17 1069 249 z m 838 571 b 540 196 838 360 711 196 b 304 457 392 196 304 294 b 601 833 304 669 431 833 b 838 571 751 833 838 736 z "},"Ó":{"ha":1090,"x_min":0,"x_max":0,"o":"m 929 1324 l 738 1324 l 588 1097 l 743 1097 z m 1069 593 b 621 1044 1069 861 889 1044 b 72 433 307 1044 72 778 b 519 -17 72 165 251 -17 b 1069 593 833 -17 1069 249 z m 838 571 b 540 196 838 360 711 196 b 304 457 392 196 304 294 b 601 833 304 669 431 833 b 838 571 751 833 838 736 z "},"Ô":{"ha":1090,"x_min":0,"x_max":0,"o":"m 596 1097 l 696 1242 l 751 1097 l 900 1097 l 804 1338 l 604 1338 l 433 1097 z m 1069 593 b 621 1044 1069 861 889 1044 b 72 433 307 1044 72 778 b 519 -17 72 165 251 -17 b 1069 593 833 -17 1069 249 z m 838 571 b 540 196 838 360 711 196 b 304 457 392 196 304 294 b 601 833 304 669 431 833 b 838 571 751 833 838 736 z "},"Ö":{"ha":1090,"x_min":0,"x_max":0,"o":"m 535 1107 b 657 1229 600 1107 657 1164 b 568 1319 657 1282 621 1319 b 446 1196 501 1319 446 1264 b 535 1107 446 1142 481 1107 z m 801 1107 b 924 1229 868 1107 924 1164 b 835 1319 924 1283 888 1319 b 714 1196 769 1319 714 1264 b 801 1107 714 1142 747 1107 z m 1069 593 b 621 1044 1069 861 889 1044 b 72 433 307 1044 72 778 b 519 -17 72 165 251 -17 b 1069 593 833 -17 1069 249 z m 838 571 b 540 196 838 360 711 196 b 304 457 392 196 304 294 b 601 833 304 669 431 833 b 838 571 751 833 838 736 z "},"Ò":{"ha":1090,"x_min":0,"x_max":0,"o":"m 738 1097 l 661 1324 l 483 1324 l 597 1097 z m 1069 593 b 621 1044 1069 861 889 1044 b 72 433 307 1044 72 778 b 519 -17 72 165 251 -17 b 1069 593 833 -17 1069 249 z m 838 571 b 540 196 838 360 711 196 b 304 457 392 196 304 294 b 601 833 304 669 431 833 b 838 571 751 833 838 736 z "},"Ő":{"ha":1090,"x_min":0,"x_max":0,"o":"m 811 1324 l 643 1324 l 481 1097 l 626 1097 z m 1051 1324 l 883 1324 l 721 1097 l 865 1097 z m 1069 593 b 621 1044 1069 861 889 1044 b 72 433 307 1044 72 778 b 519 -17 72 165 251 -17 b 1069 593 833 -17 1069 249 z m 838 571 b 540 196 838 360 711 196 b 304 457 392 196 304 294 b 601 833 304 669 431 833 b 838 571 751 833 838 736 z "},"Ō":{"ha":1090,"x_min":0,"x_max":0,"o":"m 476 1135 l 869 1135 l 892 1276 l 499 1276 z m 1069 593 b 621 1044 1069 861 889 1044 b 72 433 307 1044 72 778 b 519 -17 72 165 251 -17 b 1069 593 833 -17 1069 249 z m 838 571 b 540 196 838 360 711 196 b 304 457 392 196 304 294 b 601 833 304 669 431 833 b 838 571 751 833 838 736 z "},"Ø":{"ha":1090,"x_min":0,"x_max":0,"o":"m 1069 593 b 990 867 1069 700 1040 793 l 1133 1028 l 938 1028 l 885 969 b 621 1044 814 1018 724 1044 b 72 433 307 1044 72 778 b 154 157 72 325 101 231 l 15 1 l 221 1 l 265 51 b 519 -17 335 8 421 -17 b 1069 593 833 -17 1069 249 z m 304 457 b 601 833 304 669 431 833 b 733 800 653 833 697 822 l 322 343 b 304 457 310 376 304 414 z m 838 571 b 540 196 838 360 711 196 b 419 224 493 196 453 206 l 822 678 b 838 571 832 647 838 611 z "},"Ǿ":{"ha":1090,"x_min":0,"x_max":0,"o":"m 890 1306 l 699 1306 l 549 1079 l 704 1079 z m 1069 593 b 990 867 1069 700 1040 793 l 1133 1028 l 938 1028 l 885 969 b 621 1044 814 1018 724 1044 b 72 433 307 1044 72 778 b 154 157 72 325 101 231 l 15 1 l 221 1 l 265 51 b 519 -17 335 8 421 -17 b 1069 593 833 -17 1069 249 z m 304 457 b 601 833 304 669 431 833 b 733 800 653 833 697 822 l 322 343 b 304 457 310 376 304 414 z m 838 571 b 540 196 838 360 711 196 b 419 224 493 196 453 206 l 822 678 b 838 571 832 647 838 611 z "},"Õ":{"ha":1090,"x_min":0,"x_max":0,"o":"m 529 1100 b 593 1186 538 1161 554 1186 b 786 1100 658 1186 683 1100 b 957 1322 888 1100 947 1178 l 836 1322 b 774 1236 829 1264 814 1236 b 579 1322 701 1236 678 1322 b 410 1100 482 1322 415 1235 z m 1069 593 b 621 1044 1069 861 889 1044 b 72 433 307 1044 72 778 b 519 -17 72 165 251 -17 b 1069 593 833 -17 1069 249 z m 838 571 b 540 196 838 360 711 196 b 304 457 392 196 304 294 b 601 833 304 669 431 833 b 838 571 751 833 838 736 z "},"Œ":{"ha":1526,"x_min":0,"x_max":0,"o":"m 72 433 b 506 -17 72 165 251 -17 b 765 65 601 -17 704 17 l 754 0 l 1393 0 l 1425 203 l 1003 203 l 1038 422 l 1411 422 l 1442 614 l 1068 614 l 1101 825 l 1524 825 l 1556 1028 l 917 1028 l 901 931 b 621 1044 840 1003 753 1044 b 72 433 307 1044 72 778 z m 304 457 b 601 833 304 669 431 833 b 838 571 751 833 838 736 b 526 196 838 360 697 196 b 304 457 392 196 304 294 z "},"P":{"ha":889,"x_min":0,"x_max":0,"o":"m 514 343 b 908 725 747 343 908 500 b 594 1028 908 910 786 1028 l 215 1028 l 53 0 l 269 0 l 324 343 z m 538 833 b 683 703 632 833 683 786 b 497 538 683 597 615 538 l 354 538 l 401 833 z "},"Þ":{"ha":888,"x_min":0,"x_max":0,"o":"m 485 188 b 879 547 718 188 879 335 b 565 843 879 732 757 843 l 403 843 l 432 1028 l 215 1028 l 53 0 l 269 0 l 299 188 z m 508 649 b 654 525 603 649 654 608 b 468 382 654 435 586 382 l 329 382 l 372 649 z "},"Q":{"ha":1090,"x_min":0,"x_max":0,"o":"m 826 -87 l 972 24 l 892 138 b 1069 593 1001 247 1069 408 b 621 1044 1069 861 889 1044 b 72 433 307 1044 72 778 b 519 -17 72 165 251 -17 b 742 32 600 -17 674 0 z m 838 571 b 763 317 838 472 810 383 l 651 474 l 506 363 l 617 207 b 540 196 592 200 567 196 b 304 457 392 196 304 294 b 601 833 304 669 431 833 b 838 571 751 833 838 736 z "},"R":{"ha":939,"x_min":0,"x_max":0,"o":"m 269 0 l 326 363 l 500 363 l 610 0 l 833 0 l 707 410 b 931 731 851 479 931 594 b 597 1028 931 913 801 1028 l 215 1028 l 53 0 z m 401 833 l 563 833 b 704 713 651 833 704 789 b 525 554 704 614 636 554 l 357 554 z "},"Ŕ":{"ha":939,"x_min":0,"x_max":0,"o":"m 815 1324 l 624 1324 l 474 1097 l 629 1097 z m 269 0 l 326 363 l 500 363 l 610 0 l 833 0 l 707 410 b 931 731 851 479 931 594 b 597 1028 931 913 801 1028 l 215 1028 l 53 0 z m 401 833 l 563 833 b 704 713 651 833 704 789 b 525 554 704 614 636 554 l 357 554 z "},"Ř":{"ha":939,"x_min":0,"x_max":0,"o":"m 463 1100 l 663 1100 l 833 1340 l 671 1340 l 571 1196 l 515 1340 l 367 1340 z m 269 0 l 326 363 l 500 363 l 610 0 l 833 0 l 707 410 b 931 731 851 479 931 594 b 597 1028 931 913 801 1028 l 215 1028 l 53 0 z m 401 833 l 563 833 b 704 713 651 833 704 789 b 525 554 704 614 636 554 l 357 554 z "},"Ŗ":{"ha":939,"x_min":0,"x_max":0,"o":"m 269 0 l 326 363 l 500 363 l 610 0 l 833 0 l 707 410 b 931 731 851 479 931 594 b 597 1028 931 913 801 1028 l 215 1028 l 53 0 z m 401 833 l 563 833 b 704 713 651 833 704 789 b 525 554 704 614 636 554 l 357 554 z m 508 -146 b 422 -49 508 -89 475 -49 b 307 -157 357 -49 307 -96 b 376 -228 307 -197 333 -228 b 417 -219 393 -228 407 -225 b 299 -272 407 -261 369 -281 l 289 -336 b 508 -146 421 -353 508 -265 z "},"S":{"ha":828,"x_min":0,"x_max":0,"o":"m 97 704 b 332 431 97 572 182 474 l 482 388 b 571 292 547 368 571 343 b 411 176 571 219 511 176 b 244 299 311 176 249 222 l 26 299 b 401 -18 33 103 178 -18 b 785 314 633 -18 785 114 b 561 579 785 449 713 533 l 415 622 b 313 736 344 643 313 678 b 465 853 313 811 368 853 b 617 731 550 853 608 806 l 835 731 b 476 1047 828 911 674 1047 b 97 704 247 1047 97 913 z "},"Ś":{"ha":828,"x_min":0,"x_max":0,"o":"m 757 1324 l 565 1324 l 415 1097 l 571 1097 z m 97 704 b 332 431 97 572 182 474 l 482 388 b 571 292 547 368 571 343 b 411 176 571 219 511 176 b 244 299 311 176 249 222 l 26 299 b 401 -18 33 103 178 -18 b 785 314 633 -18 785 114 b 561 579 785 449 713 533 l 415 622 b 313 736 344 643 313 678 b 465 853 313 811 368 853 b 617 731 550 853 608 806 l 835 731 b 476 1047 828 911 674 1047 b 97 704 247 1047 97 913 z "},"Š":{"ha":828,"x_min":0,"x_max":0,"o":"m 404 1100 l 604 1100 l 775 1340 l 613 1340 l 513 1196 l 457 1340 l 308 1340 z m 97 704 b 332 431 97 572 182 474 l 482 388 b 571 292 547 368 571 343 b 411 176 571 219 511 176 b 244 299 311 176 249 222 l 26 299 b 401 -18 33 103 178 -18 b 785 314 633 -18 785 114 b 561 579 785 449 713 533 l 415 622 b 313 736 344 643 313 678 b 465 853 313 811 368 853 b 617 731 550 853 608 806 l 835 731 b 476 1047 828 911 674 1047 b 97 704 247 1047 97 913 z "},"Ş":{"ha":828,"x_min":0,"x_max":0,"o":"m 197 -293 b 313 -319 222 -307 265 -319 b 499 -162 425 -319 499 -258 b 394 -58 499 -92 442 -58 b 350 -65 375 -58 361 -61 l 382 -18 b 401 -18 388 -18 394 -18 b 785 314 633 -18 785 114 b 561 579 785 449 713 533 l 415 622 b 313 736 344 643 313 678 b 465 853 313 811 368 853 b 617 731 550 853 608 806 l 835 731 b 476 1047 828 911 674 1047 b 97 704 247 1047 97 913 b 332 431 97 572 182 474 l 482 388 b 571 292 547 368 571 343 b 411 176 571 219 511 176 b 244 299 311 176 249 222 l 26 299 b 307 -10 32 132 138 19 l 260 -85 l 271 -137 b 339 -126 290 -131 314 -126 b 392 -171 372 -126 392 -142 b 306 -232 392 -210 357 -232 b 211 -206 272 -232 242 -221 z "},"Ŝ":{"ha":828,"x_min":0,"x_max":0,"o":"m 424 1097 l 524 1242 l 579 1097 l 728 1097 l 632 1338 l 432 1338 l 261 1097 z m 97 704 b 332 431 97 572 182 474 l 482 388 b 571 292 547 368 571 343 b 411 176 571 219 511 176 b 244 299 311 176 249 222 l 26 299 b 401 -18 33 103 178 -18 b 785 314 633 -18 785 114 b 561 579 785 449 713 533 l 415 622 b 313 736 344 643 313 678 b 465 853 313 811 368 853 b 617 731 550 853 608 806 l 835 731 b 476 1047 828 911 674 1047 b 97 704 247 1047 97 913 z "},"Ș":{"ha":828,"x_min":0,"x_max":0,"o":"m 97 704 b 332 431 97 572 182 474 l 482 388 b 571 292 547 368 571 343 b 411 176 571 219 511 176 b 244 299 311 176 249 222 l 26 299 b 401 -18 33 103 178 -18 b 785 314 633 -18 785 114 b 561 579 785 449 713 533 l 415 622 b 313 736 344 643 313 678 b 465 853 313 811 368 853 b 617 731 550 853 608 806 l 835 731 b 476 1047 828 911 674 1047 b 97 704 247 1047 97 913 z m 429 -146 b 343 -49 429 -89 396 -49 b 228 -157 278 -49 228 -96 b 297 -228 228 -197 254 -228 b 338 -219 314 -228 328 -225 b 219 -272 328 -261 290 -281 l 210 -336 b 429 -146 342 -353 429 -265 z "},"T":{"ha":844,"x_min":0,"x_max":0,"o":"m 104 825 l 390 825 l 260 0 l 476 0 l 607 825 l 892 825 l 924 1028 l 136 1028 z "},"Ŧ":{"ha":844,"x_min":0,"x_max":0,"o":"m 182 415 l 325 415 l 260 0 l 476 0 l 542 415 l 689 415 l 717 593 l 569 593 l 607 825 l 892 825 l 924 1028 l 136 1028 l 104 825 l 390 825 l 353 593 l 210 593 z "},"Ť":{"ha":844,"x_min":0,"x_max":0,"o":"m 451 1100 l 651 1100 l 822 1340 l 660 1340 l 560 1196 l 504 1340 l 356 1340 z m 104 825 l 390 825 l 260 0 l 476 0 l 607 825 l 892 825 l 924 1028 l 136 1028 z "},"Ţ":{"ha":844,"x_min":0,"x_max":0,"o":"m 211 -293 b 326 -319 236 -307 279 -319 b 513 -162 439 -319 513 -258 b 408 -58 513 -92 456 -58 b 364 -65 389 -58 375 -61 l 407 0 l 476 0 l 607 825 l 892 825 l 924 1028 l 136 1028 l 104 825 l 390 825 l 260 0 l 326 0 l 274 -85 l 285 -137 b 353 -126 304 -131 328 -126 b 406 -171 386 -126 406 -142 b 319 -232 406 -210 371 -232 b 225 -206 286 -232 256 -221 z "},"Ț":{"ha":844,"x_min":0,"x_max":0,"o":"m 104 825 l 390 825 l 260 0 l 476 0 l 607 825 l 892 825 l 924 1028 l 136 1028 z m 443 -146 b 357 -49 443 -89 410 -49 b 242 -157 292 -49 242 -96 b 311 -228 242 -197 268 -228 b 351 -219 328 -228 342 -225 b 233 -272 342 -261 304 -281 l 224 -336 b 443 -146 356 -353 443 -265 z "},"U":{"ha":1028,"x_min":0,"x_max":0,"o":"m 108 399 b 468 -17 69 151 236 -17 b 933 383 729 -17 893 133 l 1036 1028 l 819 1028 l 719 399 b 489 193 699 269 614 193 b 326 399 364 193 306 269 l 425 1028 l 208 1028 z "},"Ú":{"ha":1028,"x_min":0,"x_max":0,"o":"m 896 1324 l 704 1324 l 554 1097 l 710 1097 z m 108 399 b 468 -17 69 151 236 -17 b 933 383 729 -17 893 133 l 1036 1028 l 819 1028 l 719 399 b 489 193 699 269 614 193 b 326 399 364 193 306 269 l 425 1028 l 208 1028 z "},"Û":{"ha":1028,"x_min":0,"x_max":0,"o":"m 563 1097 l 663 1242 l 718 1097 l 867 1097 l 771 1338 l 571 1338 l 400 1097 z m 108 399 b 468 -17 69 151 236 -17 b 933 383 729 -17 893 133 l 1036 1028 l 819 1028 l 719 399 b 489 193 699 269 614 193 b 326 399 364 193 306 269 l 425 1028 l 208 1028 z "},"Ü":{"ha":1028,"x_min":0,"x_max":0,"o":"m 501 1107 b 624 1229 567 1107 624 1164 b 535 1319 624 1282 588 1319 b 413 1196 468 1319 413 1264 b 501 1107 413 1142 447 1107 z m 768 1107 b 890 1229 835 1107 890 1164 b 801 1319 890 1283 854 1319 b 681 1196 736 1319 681 1264 b 768 1107 681 1142 714 1107 z m 108 399 b 468 -17 69 151 236 -17 b 933 383 729 -17 893 133 l 1036 1028 l 819 1028 l 719 399 b 489 193 699 269 614 193 b 326 399 364 193 306 269 l 425 1028 l 208 1028 z "},"Ù":{"ha":1028,"x_min":0,"x_max":0,"o":"m 704 1097 l 628 1324 l 450 1324 l 564 1097 z m 108 399 b 468 -17 69 151 236 -17 b 933 383 729 -17 893 133 l 1036 1028 l 819 1028 l 719 399 b 489 193 699 269 614 193 b 326 399 364 193 306 269 l 425 1028 l 208 1028 z "},"Ű":{"ha":1028,"x_min":0,"x_max":0,"o":"m 778 1324 l 610 1324 l 447 1097 l 593 1097 z m 1018 1324 l 850 1324 l 688 1097 l 832 1097 z m 108 399 b 468 -17 69 151 236 -17 b 933 383 729 -17 893 133 l 1036 1028 l 819 1028 l 719 399 b 489 193 699 269 614 193 b 326 399 364 193 306 269 l 425 1028 l 208 1028 z "},"Ū":{"ha":1028,"x_min":0,"x_max":0,"o":"m 443 1135 l 836 1135 l 858 1276 l 465 1276 z m 108 399 b 468 -17 69 151 236 -17 b 933 383 729 -17 893 133 l 1036 1028 l 819 1028 l 719 399 b 489 193 699 269 614 193 b 326 399 364 193 306 269 l 425 1028 l 208 1028 z "},"Ų":{"ha":1028,"x_min":0,"x_max":0,"o":"m 108 399 b 435 -15 71 164 221 0 b 321 -182 365 -51 321 -115 b 456 -304 321 -250 369 -304 b 536 -290 488 -304 511 -300 l 558 -157 b 514 -167 542 -164 524 -167 b 465 -121 483 -167 465 -146 b 569 -8 465 -79 506 -36 b 933 383 772 26 899 168 l 1036 1028 l 819 1028 l 719 399 b 489 193 699 269 614 193 b 326 399 364 193 306 269 l 425 1028 l 208 1028 z "},"Ů":{"ha":1028,"x_min":0,"x_max":0,"o":"m 639 1074 b 854 1288 763 1074 854 1165 b 679 1456 854 1386 781 1456 b 467 1238 558 1456 467 1363 b 639 1074 467 1140 536 1074 z m 650 1179 b 579 1253 607 1179 579 1208 b 669 1350 579 1310 617 1350 b 742 1278 713 1350 742 1321 b 650 1179 742 1221 704 1179 z m 108 399 b 468 -17 69 151 236 -17 b 933 383 729 -17 893 133 l 1036 1028 l 819 1028 l 719 399 b 489 193 699 269 614 193 b 326 399 364 193 306 269 l 425 1028 l 208 1028 z "},"Ũ":{"ha":1028,"x_min":0,"x_max":0,"o":"m 496 1100 b 560 1186 504 1161 521 1186 b 753 1100 625 1186 650 1100 b 924 1322 854 1100 914 1178 l 803 1322 b 740 1236 796 1264 781 1236 b 546 1322 668 1236 644 1322 b 376 1100 449 1322 382 1235 z m 108 399 b 468 -17 69 151 236 -17 b 933 383 729 -17 893 133 l 1036 1028 l 819 1028 l 719 399 b 489 193 699 269 614 193 b 326 399 364 193 306 269 l 425 1028 l 208 1028 z "},"V":{"ha":996,"x_min":0,"x_max":0,"o":"m 335 0 l 560 0 l 1092 1028 l 856 1028 l 582 497 b 482 283 550 435 528 388 b 451 499 474 374 464 435 l 343 1028 l 121 1028 z "},"W":{"ha":1450,"x_min":0,"x_max":0,"o":"m 267 0 l 483 0 l 785 710 l 860 0 l 1069 0 l 1539 1028 l 1314 1028 l 1104 565 b 1017 347 1081 513 1044 429 b 1003 568 1014 429 1010 506 l 953 1028 l 704 1028 l 506 568 b 421 347 482 514 447 431 b 403 568 421 431 410 515 l 343 1028 l 128 1028 z "},"Ẃ":{"ha":1450,"x_min":0,"x_max":0,"o":"m 1107 1324 l 915 1324 l 765 1097 l 921 1097 z m 267 0 l 483 0 l 785 710 l 860 0 l 1069 0 l 1539 1028 l 1314 1028 l 1104 565 b 1017 347 1081 513 1044 429 b 1003 568 1014 429 1010 506 l 953 1028 l 704 1028 l 506 568 b 421 347 482 514 447 431 b 403 568 421 431 410 515 l 343 1028 l 128 1028 z "},"Ŵ":{"ha":1450,"x_min":0,"x_max":0,"o":"m 774 1097 l 874 1242 l 929 1097 l 1078 1097 l 982 1338 l 782 1338 l 611 1097 z m 267 0 l 483 0 l 785 710 l 860 0 l 1069 0 l 1539 1028 l 1314 1028 l 1104 565 b 1017 347 1081 513 1044 429 b 1003 568 1014 429 1010 506 l 953 1028 l 704 1028 l 506 568 b 421 347 482 514 447 431 b 403 568 421 431 410 515 l 343 1028 l 128 1028 z "},"Ẅ":{"ha":1450,"x_min":0,"x_max":0,"o":"m 713 1107 b 835 1229 778 1107 835 1164 b 746 1319 835 1282 799 1319 b 624 1196 679 1319 624 1264 b 713 1107 624 1142 658 1107 z m 979 1107 b 1101 1229 1046 1107 1101 1164 b 1013 1319 1101 1283 1065 1319 b 892 1196 947 1319 892 1264 b 979 1107 892 1142 925 1107 z m 267 0 l 483 0 l 785 710 l 860 0 l 1069 0 l 1539 1028 l 1314 1028 l 1104 565 b 1017 347 1081 513 1044 429 b 1003 568 1014 429 1010 506 l 953 1028 l 704 1028 l 506 568 b 421 347 482 514 447 431 b 403 568 421 431 410 515 l 343 1028 l 128 1028 z "},"Ẁ":{"ha":1450,"x_min":0,"x_max":0,"o":"m 915 1097 l 839 1324 l 661 1324 l 775 1097 z m 267 0 l 483 0 l 785 710 l 860 0 l 1069 0 l 1539 1028 l 1314 1028 l 1104 565 b 1017 347 1081 513 1044 429 b 1003 568 1014 429 1010 506 l 953 1028 l 704 1028 l 506 568 b 421 347 482 514 447 431 b 403 568 421 431 410 515 l 343 1028 l 128 1028 z "},"X":{"ha":982,"x_min":0,"x_max":0,"o":"m 386 513 l -31 0 l 239 0 l 504 368 b 606 115 531 296 582 168 l 657 0 l 901 0 l 663 513 l 1064 1028 l 800 1028 l 543 660 b 454 885 515 736 476 836 l 389 1028 l 154 1028 z "},"Y":{"ha":922,"x_min":0,"x_max":0,"o":"m 360 392 l 297 0 l 514 0 l 576 392 l 1017 1028 l 769 1028 l 542 689 b 494 606 522 660 507 633 b 471 688 489 635 481 661 l 351 1028 l 122 1028 z "},"Ý":{"ha":922,"x_min":0,"x_max":0,"o":"m 833 1324 l 642 1324 l 492 1097 l 647 1097 z m 360 392 l 297 0 l 514 0 l 576 392 l 1017 1028 l 769 1028 l 542 689 b 494 606 522 660 507 633 b 471 688 489 635 481 661 l 351 1028 l 122 1028 z "},"Ŷ":{"ha":922,"x_min":0,"x_max":0,"o":"m 500 1097 l 600 1242 l 656 1097 l 804 1097 l 708 1338 l 508 1338 l 338 1097 z m 360 392 l 297 0 l 514 0 l 576 392 l 1017 1028 l 769 1028 l 542 689 b 494 606 522 660 507 633 b 471 688 489 635 481 661 l 351 1028 l 122 1028 z "},"Ÿ":{"ha":922,"x_min":0,"x_max":0,"o":"m 439 1107 b 561 1229 504 1107 561 1164 b 472 1319 561 1282 525 1319 b 350 1196 406 1319 350 1264 b 439 1107 350 1142 385 1107 z m 706 1107 b 828 1229 772 1107 828 1164 b 739 1319 828 1283 792 1319 b 618 1196 674 1319 618 1264 b 706 1107 618 1142 651 1107 z m 360 392 l 297 0 l 514 0 l 576 392 l 1017 1028 l 769 1028 l 542 689 b 494 606 522 660 507 633 b 471 688 489 635 481 661 l 351 1028 l 122 1028 z "},"Ỳ":{"ha":922,"x_min":0,"x_max":0,"o":"m 642 1097 l 565 1324 l 388 1324 l 501 1097 z m 360 392 l 297 0 l 514 0 l 576 392 l 1017 1028 l 769 1028 l 542 689 b 494 606 522 660 507 633 b 471 688 489 635 481 661 l 351 1028 l 122 1028 z "},"Z":{"ha":808,"x_min":0,"x_max":0,"o":"m 718 0 l 750 203 l 281 203 l 838 832 l 868 1028 l 157 1028 l 125 825 l 560 825 l 13 206 l -19 0 z "},"Ź":{"ha":808,"x_min":0,"x_max":0,"o":"m 772 1324 l 581 1324 l 431 1097 l 586 1097 z m 718 0 l 750 203 l 281 203 l 838 832 l 868 1028 l 157 1028 l 125 825 l 560 825 l 13 206 l -19 0 z "},"Ž":{"ha":808,"x_min":0,"x_max":0,"o":"m 419 1100 l 619 1100 l 790 1340 l 628 1340 l 528 1196 l 472 1340 l 324 1340 z m 718 0 l 750 203 l 281 203 l 838 832 l 868 1028 l 157 1028 l 125 825 l 560 825 l 13 206 l -19 0 z "},"Ż":{"ha":808,"x_min":0,"x_max":0,"o":"m 510 1107 b 639 1236 579 1107 639 1167 b 546 1331 639 1293 601 1331 b 417 1201 476 1331 417 1272 b 510 1107 417 1143 453 1107 z m 718 0 l 750 203 l 281 203 l 838 832 l 868 1028 l 157 1028 l 125 825 l 560 825 l 13 206 l -19 0 z "},"a":{"ha":768,"x_min":0,"x_max":0,"o":"m 240 -18 b 460 93 339 -18 428 26 l 458 0 l 640 0 l 706 407 b 422 715 736 596 626 715 b 86 457 232 715 111 622 l 267 457 b 400 557 276 524 321 557 b 510 450 478 557 518 519 l 508 438 l 314 421 b 28 175 129 406 28 319 b 240 -18 28 60 114 -18 z m 324 136 b 238 200 268 136 238 160 b 378 290 238 253 275 282 l 489 300 l 483 263 b 324 136 472 185 410 136 z "},"á":{"ha":768,"x_min":0,"x_max":0,"o":"m 726 1004 l 535 1004 l 385 778 l 540 778 z m 240 -18 b 460 93 339 -18 428 26 l 458 0 l 640 0 l 706 407 b 422 715 736 596 626 715 b 86 457 232 715 111 622 l 267 457 b 400 557 276 524 321 557 b 510 450 478 557 518 519 l 508 438 l 314 421 b 28 175 129 406 28 319 b 240 -18 28 60 114 -18 z m 324 136 b 238 200 268 136 238 160 b 378 290 238 253 275 282 l 489 300 l 483 263 b 324 136 472 185 410 136 z "},"ă":{"ha":768,"x_min":0,"x_max":0,"o":"m 581 1007 b 481 900 569 940 539 900 b 392 1007 422 900 392 939 l 249 1007 b 471 764 249 857 325 764 b 726 1007 629 764 703 858 z m 240 -18 b 460 93 339 -18 428 26 l 458 0 l 640 0 l 706 407 b 422 715 736 596 626 715 b 86 457 232 715 111 622 l 267 457 b 400 557 276 524 321 557 b 510 450 478 557 518 519 l 508 438 l 314 421 b 28 175 129 406 28 319 b 240 -18 28 60 114 -18 z m 324 136 b 238 200 268 136 238 160 b 378 290 238 253 275 282 l 489 300 l 483 263 b 324 136 472 185 410 136 z "},"â":{"ha":768,"x_min":0,"x_max":0,"o":"m 393 778 l 493 922 l 549 778 l 697 778 l 601 1018 l 401 1018 l 231 778 z m 240 -18 b 460 93 339 -18 428 26 l 458 0 l 640 0 l 706 407 b 422 715 736 596 626 715 b 86 457 232 715 111 622 l 267 457 b 400 557 276 524 321 557 b 510 450 478 557 518 519 l 508 438 l 314 421 b 28 175 129 406 28 319 b 240 -18 28 60 114 -18 z m 324 136 b 238 200 268 136 238 160 b 378 290 238 253 275 282 l 489 300 l 483 263 b 324 136 472 185 410 136 z "},"ä":{"ha":768,"x_min":0,"x_max":0,"o":"m 332 788 b 454 910 397 788 454 844 b 365 1000 454 963 418 1000 b 243 876 299 1000 243 944 b 332 788 243 822 278 788 z m 599 788 b 721 910 665 788 721 844 b 632 1000 721 964 685 1000 b 511 876 567 1000 511 944 b 599 788 511 822 544 788 z m 240 -18 b 460 93 339 -18 428 26 l 458 0 l 640 0 l 706 407 b 422 715 736 596 626 715 b 86 457 232 715 111 622 l 267 457 b 400 557 276 524 321 557 b 510 450 478 557 518 519 l 508 438 l 314 421 b 28 175 129 406 28 319 b 240 -18 28 60 114 -18 z m 324 136 b 238 200 268 136 238 160 b 378 290 238 253 275 282 l 489 300 l 483 263 b 324 136 472 185 410 136 z "},"à":{"ha":768,"x_min":0,"x_max":0,"o":"m 535 778 l 458 1004 l 281 1004 l 394 778 z m 240 -18 b 460 93 339 -18 428 26 l 458 0 l 640 0 l 706 407 b 422 715 736 596 626 715 b 86 457 232 715 111 622 l 267 457 b 400 557 276 524 321 557 b 510 450 478 557 518 519 l 508 438 l 314 421 b 28 175 129 406 28 319 b 240 -18 28 60 114 -18 z m 324 136 b 238 200 268 136 238 160 b 378 290 238 253 275 282 l 489 300 l 483 263 b 324 136 472 185 410 136 z "},"ā":{"ha":768,"x_min":0,"x_max":0,"o":"m 274 815 l 667 815 l 689 957 l 296 957 z m 240 -18 b 460 93 339 -18 428 26 l 458 0 l 640 0 l 706 407 b 422 715 736 596 626 715 b 86 457 232 715 111 622 l 267 457 b 400 557 276 524 321 557 b 510 450 478 557 518 519 l 508 438 l 314 421 b 28 175 129 406 28 319 b 240 -18 28 60 114 -18 z m 324 136 b 238 200 268 136 238 160 b 378 290 238 253 275 282 l 489 300 l 483 263 b 324 136 472 185 410 136 z "},"ą":{"ha":768,"x_min":0,"x_max":0,"o":"m 240 -18 b 460 93 339 -18 428 26 l 458 0 l 517 0 b 368 -182 428 -32 368 -104 b 503 -304 368 -250 417 -304 b 583 -290 535 -304 558 -300 l 606 -157 b 561 -167 589 -164 571 -167 b 513 -121 531 -167 513 -146 b 639 0 513 -75 561 -26 l 640 0 l 706 407 b 422 715 736 596 626 715 b 86 457 232 715 111 622 l 267 457 b 400 557 276 524 321 557 b 510 450 478 557 518 519 l 508 438 l 314 421 b 28 175 129 406 28 319 b 240 -18 28 60 114 -18 z m 324 136 b 238 200 268 136 238 160 b 378 290 238 253 275 282 l 489 300 l 483 263 b 324 136 472 185 410 136 z "},"å":{"ha":768,"x_min":0,"x_max":0,"o":"m 469 754 b 685 968 593 754 685 846 b 510 1136 685 1067 611 1136 b 297 918 389 1136 297 1043 b 469 754 297 821 367 754 z m 481 860 b 410 933 438 860 410 889 b 500 1031 410 990 447 1031 b 572 958 543 1031 572 1001 b 481 860 572 901 535 860 z m 240 -18 b 460 93 339 -18 428 26 l 458 0 l 640 0 l 706 407 b 422 715 736 596 626 715 b 86 457 232 715 111 622 l 267 457 b 400 557 276 524 321 557 b 510 450 478 557 518 519 l 508 438 l 314 421 b 28 175 129 406 28 319 b 240 -18 28 60 114 -18 z m 324 136 b 238 200 268 136 238 160 b 378 290 238 253 275 282 l 489 300 l 483 263 b 324 136 472 185 410 136 z "},"ǻ":{"ha":768,"x_min":0,"x_max":0,"o":"m 750 1214 l 574 1214 l 435 1019 l 578 1019 z m 240 -18 b 460 93 339 -18 428 26 l 458 0 l 640 0 l 706 407 b 599 674 725 531 686 624 b 657 824 635 713 657 764 b 482 992 657 922 583 992 b 269 774 361 992 269 899 b 286 696 269 744 275 718 b 86 457 175 661 104 579 l 267 457 b 400 557 276 524 321 557 b 510 450 478 557 518 519 l 508 438 l 314 421 b 28 175 129 406 28 319 b 240 -18 28 60 114 -18 z m 453 715 b 382 789 410 715 382 744 b 472 886 382 846 419 886 b 544 814 515 886 544 857 b 453 715 544 757 507 715 z m 324 136 b 238 200 268 136 238 160 b 378 290 238 253 275 282 l 489 300 l 483 263 b 324 136 472 185 410 136 z "},"ã":{"ha":768,"x_min":0,"x_max":0,"o":"m 326 781 b 390 867 335 842 351 867 b 583 781 456 867 481 781 b 754 1003 685 781 744 858 l 633 1003 b 571 917 626 944 611 917 b 376 1003 499 917 475 1003 b 207 781 279 1003 213 915 z m 240 -18 b 460 93 339 -18 428 26 l 458 0 l 640 0 l 706 407 b 422 715 736 596 626 715 b 86 457 232 715 111 622 l 267 457 b 400 557 276 524 321 557 b 510 450 478 557 518 519 l 508 438 l 314 421 b 28 175 129 406 28 319 b 240 -18 28 60 114 -18 z m 324 136 b 238 200 268 136 238 160 b 378 290 238 253 275 282 l 489 300 l 483 263 b 324 136 472 185 410 136 z "},"æ":{"ha":1219,"x_min":0,"x_max":0,"o":"m 28 175 b 254 -18 28 60 114 -18 b 538 115 390 -18 483 36 b 804 -17 585 29 674 -17 b 1160 233 968 -17 1113 85 l 957 233 b 815 153 931 182 881 153 b 676 292 726 153 682 199 l 1167 294 l 1175 349 b 875 714 1210 571 1090 714 b 639 631 782 714 701 683 b 422 715 597 685 525 715 b 86 457 232 715 111 622 l 267 457 b 400 557 276 524 321 557 b 510 450 478 557 518 519 l 507 426 l 313 410 b 28 175 128 394 28 319 z m 863 546 b 981 421 947 546 993 497 l 697 421 b 863 546 728 496 789 546 z m 238 200 b 376 279 238 250 274 271 l 488 289 l 483 263 b 324 136 471 185 410 136 b 238 200 272 136 238 156 z "},"ǽ":{"ha":1219,"x_min":0,"x_max":0,"o":"m 925 1004 l 733 1004 l 583 778 l 739 778 z m 28 175 b 254 -18 28 60 114 -18 b 538 115 390 -18 483 36 b 804 -17 585 29 674 -17 b 1160 233 968 -17 1113 85 l 957 233 b 815 153 931 182 881 153 b 676 292 726 153 682 199 l 1167 294 l 1175 349 b 875 714 1210 571 1090 714 b 639 631 782 714 701 683 b 422 715 597 685 525 715 b 86 457 232 715 111 622 l 267 457 b 400 557 276 524 321 557 b 510 450 478 557 518 519 l 507 426 l 313 410 b 28 175 128 394 28 319 z m 863 546 b 981 421 947 546 993 497 l 697 421 b 863 546 728 496 789 546 z m 238 200 b 376 279 238 250 274 271 l 488 289 l 483 263 b 324 136 471 185 410 136 b 238 200 272 136 238 156 z "},"b":{"ha":874,"x_min":0,"x_max":0,"o":"m 219 0 l 244 92 b 469 -17 282 29 374 -17 b 832 394 678 -17 832 150 b 547 714 832 583 711 714 b 329 610 451 714 379 675 l 397 1047 l 190 1047 l 25 0 z m 286 317 b 481 532 286 438 374 532 b 625 381 569 532 625 471 b 431 165 625 260 538 165 b 286 317 342 165 286 226 z "},"c":{"ha":774,"x_min":0,"x_max":0,"o":"m 39 294 b 364 -17 39 97 158 -17 b 728 276 542 -17 686 100 l 517 276 b 375 167 492 207 439 167 b 250 310 294 167 250 218 b 422 531 250 436 324 531 b 543 422 496 531 539 492 l 751 422 b 435 714 751 604 633 714 b 39 294 210 714 39 533 z "},"ć":{"ha":774,"x_min":0,"x_max":0,"o":"m 724 1004 l 532 1004 l 382 778 l 538 778 z m 39 294 b 364 -17 39 97 158 -17 b 728 276 542 -17 686 100 l 517 276 b 375 167 492 207 439 167 b 250 310 294 167 250 218 b 422 531 250 436 324 531 b 543 422 496 531 539 492 l 751 422 b 435 714 751 604 633 714 b 39 294 210 714 39 533 z "},"č":{"ha":774,"x_min":0,"x_max":0,"o":"m 371 781 l 571 781 l 742 1021 l 579 1021 l 479 876 l 424 1021 l 275 1021 z m 39 294 b 364 -17 39 97 158 -17 b 728 276 542 -17 686 100 l 517 276 b 375 167 492 207 439 167 b 250 310 294 167 250 218 b 422 531 250 436 324 531 b 543 422 496 531 539 492 l 751 422 b 435 714 751 604 633 714 b 39 294 210 714 39 533 z "},"ç":{"ha":774,"x_min":0,"x_max":0,"o":"m 39 294 b 294 -12 39 121 132 11 l 249 -85 l 260 -137 b 328 -126 279 -131 303 -126 b 381 -171 361 -126 381 -142 b 294 -232 381 -210 346 -232 b 200 -206 261 -232 231 -221 l 186 -293 b 301 -319 211 -307 254 -319 b 488 -162 414 -319 488 -258 b 383 -58 488 -92 431 -58 b 339 -65 364 -58 350 -61 l 371 -17 b 728 276 542 -17 686 100 l 517 276 b 375 167 492 207 439 167 b 250 310 294 167 250 218 b 422 531 250 436 324 531 b 543 422 496 531 539 492 l 751 422 b 435 714 751 604 633 714 b 39 294 210 714 39 533 z "},"ĉ":{"ha":774,"x_min":0,"x_max":0,"o":"m 390 778 l 490 922 l 546 778 l 694 778 l 599 1018 l 399 1018 l 228 778 z m 39 294 b 364 -17 39 97 158 -17 b 728 276 542 -17 686 100 l 517 276 b 375 167 492 207 439 167 b 250 310 294 167 250 218 b 422 531 250 436 324 531 b 543 422 496 531 539 492 l 751 422 b 435 714 751 604 633 714 b 39 294 210 714 39 533 z "},"ċ":{"ha":774,"x_min":0,"x_max":0,"o":"m 461 788 b 590 917 531 788 590 847 b 497 1011 590 974 553 1011 b 368 882 428 1011 368 953 b 461 788 368 824 404 788 z m 39 294 b 364 -17 39 97 158 -17 b 728 276 542 -17 686 100 l 517 276 b 375 167 492 207 439 167 b 250 310 294 167 250 218 b 422 531 250 436 324 531 b 543 422 496 531 539 492 l 751 422 b 435 714 751 604 633 714 b 39 294 210 714 39 533 z "},"d":{"ha":872,"x_min":0,"x_max":0,"o":"m 326 -17 b 544 88 422 -17 494 22 l 543 0 l 738 0 l 903 1047 l 696 1047 l 629 606 b 404 714 592 668 500 714 b 42 303 196 714 42 547 b 326 -17 42 114 163 -17 z m 393 165 b 249 317 304 165 249 226 b 443 532 249 438 336 532 b 588 381 532 532 588 471 b 393 165 588 260 500 165 z "},"ð":{"ha":825,"x_min":0,"x_max":0,"o":"m 39 294 b 388 -15 39 113 167 -15 b 796 490 636 -15 796 188 b 711 869 796 617 767 747 l 806 900 l 768 1017 l 653 979 b 606 1047 640 999 624 1021 l 393 1047 b 478 921 428 999 454 961 l 311 867 l 350 751 l 532 811 b 603 631 563 744 586 683 b 426 683 557 668 489 683 b 39 294 213 683 39 514 z m 249 306 b 428 503 249 415 326 503 b 572 361 526 503 572 436 b 385 165 572 249 493 165 b 249 306 292 165 249 233 z "},"ď":{"ha":872,"x_min":0,"x_max":0,"o":"m 326 -17 b 544 88 422 -17 494 22 l 543 0 l 738 0 l 903 1047 l 696 1047 l 629 606 b 404 714 592 668 500 714 b 42 303 196 714 42 547 b 326 -17 42 114 163 -17 z m 925 778 l 1047 778 l 1133 1047 l 968 1047 z m 393 165 b 249 317 304 165 249 226 b 443 532 249 438 336 532 b 588 381 532 532 588 471 b 393 165 588 260 500 165 z "},"đ":{"ha":872,"x_min":0,"x_max":0,"o":"m 326 -17 b 544 88 422 -17 494 22 l 543 0 l 738 0 l 864 801 l 950 801 l 969 922 l 883 922 l 903 1047 l 696 1047 l 676 922 l 464 922 l 444 801 l 658 801 l 629 606 b 404 714 592 668 500 714 b 42 303 196 714 42 547 b 326 -17 42 114 163 -17 z m 393 165 b 249 317 304 165 249 226 b 443 532 249 438 336 532 b 588 381 532 532 588 471 b 393 165 588 260 500 165 z "},"e":{"ha":779,"x_min":0,"x_max":0,"o":"m 364 -17 b 719 233 528 -17 672 85 l 517 233 b 375 153 490 182 440 153 b 236 292 286 153 242 199 l 726 294 l 735 349 b 435 714 769 571 650 714 b 39 294 210 714 39 533 b 364 -17 39 97 158 -17 z m 422 546 b 540 421 507 546 553 497 l 257 421 b 422 546 288 496 349 546 z "},"é":{"ha":779,"x_min":0,"x_max":0,"o":"m 703 1004 l 511 1004 l 361 778 l 517 778 z m 364 -17 b 719 233 528 -17 672 85 l 517 233 b 375 153 490 182 440 153 b 236 292 286 153 242 199 l 726 294 l 735 349 b 435 714 769 571 650 714 b 39 294 210 714 39 533 b 364 -17 39 97 158 -17 z m 422 546 b 540 421 507 546 553 497 l 257 421 b 422 546 288 496 349 546 z "},"ĕ":{"ha":779,"x_min":0,"x_max":0,"o":"m 557 1007 b 457 900 546 940 515 900 b 368 1007 399 900 368 939 l 225 1007 b 447 764 225 857 301 764 b 703 1007 606 764 679 858 z m 364 -17 b 719 233 528 -17 672 85 l 517 233 b 375 153 490 182 440 153 b 236 292 286 153 242 199 l 726 294 l 735 349 b 435 714 769 571 650 714 b 39 294 210 714 39 533 b 364 -17 39 97 158 -17 z m 422 546 b 540 421 507 546 553 497 l 257 421 b 422 546 288 496 349 546 z "},"ě":{"ha":779,"x_min":0,"x_max":0,"o":"m 350 781 l 550 781 l 721 1021 l 558 1021 l 458 876 l 403 1021 l 254 1021 z m 364 -17 b 719 233 528 -17 672 85 l 517 233 b 375 153 490 182 440 153 b 236 292 286 153 242 199 l 726 294 l 735 349 b 435 714 769 571 650 714 b 39 294 210 714 39 533 b 364 -17 39 97 158 -17 z m 422 546 b 540 421 507 546 553 497 l 257 421 b 422 546 288 496 349 546 z "},"ê":{"ha":779,"x_min":0,"x_max":0,"o":"m 369 778 l 469 922 l 525 778 l 674 778 l 578 1018 l 378 1018 l 207 778 z m 364 -17 b 719 233 528 -17 672 85 l 517 233 b 375 153 490 182 440 153 b 236 292 286 153 242 199 l 726 294 l 735 349 b 435 714 769 571 650 714 b 39 294 210 714 39 533 b 364 -17 39 97 158 -17 z m 422 546 b 540 421 507 546 553 497 l 257 421 b 422 546 288 496 349 546 z "},"ë":{"ha":779,"x_min":0,"x_max":0,"o":"m 308 788 b 431 910 374 788 431 844 b 342 1000 431 963 394 1000 b 219 876 275 1000 219 944 b 308 788 219 822 254 788 z m 575 788 b 697 910 642 788 697 844 b 608 1000 697 964 661 1000 b 488 876 543 1000 488 944 b 575 788 488 822 521 788 z m 364 -17 b 719 233 528 -17 672 85 l 517 233 b 375 153 490 182 440 153 b 236 292 286 153 242 199 l 726 294 l 735 349 b 435 714 769 571 650 714 b 39 294 210 714 39 533 b 364 -17 39 97 158 -17 z m 422 546 b 540 421 507 546 553 497 l 257 421 b 422 546 288 496 349 546 z "},"ė":{"ha":779,"x_min":0,"x_max":0,"o":"m 440 788 b 569 917 510 788 569 847 b 476 1011 569 974 532 1011 b 347 882 407 1011 347 953 b 440 788 347 824 383 788 z m 364 -17 b 719 233 528 -17 672 85 l 517 233 b 375 153 490 182 440 153 b 236 292 286 153 242 199 l 726 294 l 735 349 b 435 714 769 571 650 714 b 39 294 210 714 39 533 b 364 -17 39 97 158 -17 z m 422 546 b 540 421 507 546 553 497 l 257 421 b 422 546 288 496 349 546 z "},"è":{"ha":779,"x_min":0,"x_max":0,"o":"m 511 778 l 435 1004 l 257 1004 l 371 778 z m 364 -17 b 719 233 528 -17 672 85 l 517 233 b 375 153 490 182 440 153 b 236 292 286 153 242 199 l 726 294 l 735 349 b 435 714 769 571 650 714 b 39 294 210 714 39 533 b 364 -17 39 97 158 -17 z m 422 546 b 540 421 507 546 553 497 l 257 421 b 422 546 288 496 349 546 z "},"ē":{"ha":779,"x_min":0,"x_max":0,"o":"m 250 815 l 643 815 l 665 957 l 272 957 z m 364 -17 b 719 233 528 -17 672 85 l 517 233 b 375 153 490 182 440 153 b 236 292 286 153 242 199 l 726 294 l 735 349 b 435 714 769 571 650 714 b 39 294 210 714 39 533 b 364 -17 39 97 158 -17 z m 422 546 b 540 421 507 546 553 497 l 257 421 b 422 546 288 496 349 546 z "},"ę":{"ha":779,"x_min":0,"x_max":0,"o":"m 421 -290 l 443 -157 b 399 -167 426 -164 408 -167 b 350 -121 368 -167 350 -146 b 474 -1 350 -75 397 -28 b 719 233 589 32 683 119 l 517 233 b 375 153 490 182 440 153 b 236 292 286 153 242 199 l 726 294 l 735 349 b 435 714 769 571 650 714 b 39 294 210 714 39 533 b 321 -15 39 111 142 0 b 206 -182 250 -51 206 -114 b 340 -304 206 -250 254 -304 b 421 -290 372 -304 396 -300 z m 422 546 b 540 421 507 546 553 497 l 257 421 b 422 546 288 496 349 546 z "},"f":{"ha":494,"x_min":0,"x_max":0,"o":"m 71 694 l 43 522 l 139 522 l 56 0 l 261 0 l 343 522 l 507 522 l 535 694 l 369 694 l 379 753 b 503 861 390 828 431 861 l 561 861 l 589 1039 b 497 1047 558 1044 525 1047 b 175 753 317 1047 206 946 l 165 694 z "},"g":{"ha":858,"x_min":0,"x_max":0,"o":"m 40 304 b 331 8 40 132 163 8 b 532 92 414 8 485 39 l 517 0 b 338 -165 499 -108 436 -165 b 185 -36 249 -165 190 -117 l -19 -36 b 333 -354 -19 -225 124 -354 b 731 43 558 -354 689 -224 l 833 694 l 639 694 l 617 618 b 418 714 582 675 504 714 b 40 304 208 714 40 532 z m 251 324 b 439 532 251 440 333 532 b 578 396 525 532 578 479 b 386 183 578 274 496 183 b 251 324 306 183 251 240 z "},"ğ":{"ha":858,"x_min":0,"x_max":0,"o":"m 576 1007 b 476 900 565 940 535 900 b 388 1007 418 900 388 939 l 244 1007 b 467 764 244 857 321 764 b 722 1007 625 764 699 858 z m 40 304 b 331 8 40 132 163 8 b 532 92 414 8 485 39 l 517 0 b 338 -165 499 -108 436 -165 b 185 -36 249 -165 190 -117 l -19 -36 b 333 -354 -19 -225 124 -354 b 731 43 558 -354 689 -224 l 833 694 l 639 694 l 617 618 b 418 714 582 675 504 714 b 40 304 208 714 40 532 z m 251 324 b 439 532 251 440 333 532 b 578 396 525 532 578 479 b 386 183 578 274 496 183 b 251 324 306 183 251 240 z "},"ĝ":{"ha":858,"x_min":0,"x_max":0,"o":"m 389 778 l 489 922 l 544 778 l 693 778 l 597 1018 l 397 1018 l 226 778 z m 40 304 b 331 8 40 132 163 8 b 532 92 414 8 485 39 l 517 0 b 338 -165 499 -108 436 -165 b 185 -36 249 -165 190 -117 l -19 -36 b 333 -354 -19 -225 124 -354 b 731 43 558 -354 689 -224 l 833 694 l 639 694 l 617 618 b 418 714 582 675 504 714 b 40 304 208 714 40 532 z m 251 324 b 439 532 251 440 333 532 b 578 396 525 532 578 479 b 386 183 578 274 496 183 b 251 324 306 183 251 240 z "},"ģ":{"ha":858,"x_min":0,"x_max":0,"o":"m 569 913 b 499 983 569 954 543 983 b 461 975 486 983 472 981 b 579 1028 471 1018 513 1036 l 589 1092 b 369 900 457 1108 369 1019 b 456 803 369 844 401 803 b 569 913 519 803 569 850 z m 40 304 b 331 8 40 132 163 8 b 532 92 414 8 485 39 l 517 0 b 338 -165 499 -108 436 -165 b 185 -36 249 -165 190 -117 l -19 -36 b 333 -354 -19 -225 124 -354 b 731 43 558 -354 689 -224 l 833 694 l 639 694 l 617 618 b 418 714 582 675 504 714 b 40 304 208 714 40 532 z m 251 324 b 439 532 251 440 333 532 b 578 396 525 532 578 479 b 386 183 578 274 496 183 b 251 324 306 183 251 240 z "},"ġ":{"ha":858,"x_min":0,"x_max":0,"o":"m 460 788 b 589 917 529 788 589 847 b 496 1011 589 974 551 1011 b 367 882 426 1011 367 953 b 460 788 367 824 403 788 z m 40 304 b 331 8 40 132 163 8 b 532 92 414 8 485 39 l 517 0 b 338 -165 499 -108 436 -165 b 185 -36 249 -165 190 -117 l -19 -36 b 333 -354 -19 -225 124 -354 b 731 43 558 -354 689 -224 l 833 694 l 639 694 l 617 618 b 418 714 582 675 504 714 b 40 304 208 714 40 532 z m 251 324 b 439 532 251 440 333 532 b 578 396 525 532 578 479 b 386 183 578 274 496 183 b 251 324 306 183 251 240 z "},"h":{"ha":824,"x_min":0,"x_max":0,"o":"m 231 0 l 290 379 b 440 531 306 478 360 531 b 549 378 521 531 564 471 l 489 0 l 696 0 l 764 428 b 529 717 789 586 683 717 b 331 619 446 717 389 689 l 399 1047 l 190 1047 l 25 0 z "},"ħ":{"ha":824,"x_min":0,"x_max":0,"o":"m 231 0 l 290 379 b 440 531 306 478 360 531 b 549 378 521 531 564 471 l 489 0 l 696 0 l 764 428 b 529 717 789 586 683 717 b 331 619 446 717 389 689 l 360 801 l 569 801 l 589 922 l 379 922 l 399 1047 l 190 1047 l 171 922 l 83 922 l 64 801 l 151 801 l 25 0 z "},"i":{"ha":367,"x_min":0,"x_max":0,"o":"m 254 806 b 393 943 326 806 393 872 b 293 1043 393 1000 351 1043 b 154 906 219 1043 154 978 b 254 806 154 849 196 806 z m 25 0 l 232 0 l 342 694 l 135 694 z "},"í":{"ha":367,"x_min":0,"x_max":0,"o":"m 515 1004 l 324 1004 l 174 778 l 329 778 z m 25 0 l 232 0 l 342 694 l 135 694 z "},"î":{"ha":367,"x_min":0,"x_max":0,"o":"m 182 778 l 282 922 l 338 778 l 486 778 l 390 1018 l 190 1018 l 19 778 z m 25 0 l 232 0 l 342 694 l 135 694 z "},"ï":{"ha":367,"x_min":0,"x_max":0,"o":"m 121 788 b 243 910 186 788 243 844 b 154 1000 243 963 207 1000 b 32 876 88 1000 32 944 b 121 788 32 822 67 788 z m 388 788 b 510 910 454 788 510 844 b 421 1000 510 964 474 1000 b 300 876 356 1000 300 944 b 388 788 300 822 333 788 z m 25 0 l 232 0 l 342 694 l 135 694 z "},"ì":{"ha":367,"x_min":0,"x_max":0,"o":"m 324 778 l 247 1004 l 69 1004 l 183 778 z m 25 0 l 232 0 l 342 694 l 135 694 z "},"ī":{"ha":367,"x_min":0,"x_max":0,"o":"m 63 815 l 456 815 l 478 957 l 85 957 z m 25 0 l 232 0 l 342 694 l 135 694 z "},"į":{"ha":367,"x_min":0,"x_max":0,"o":"m 254 806 b 393 943 326 806 393 872 b 293 1043 393 1000 351 1043 b 154 906 219 1043 154 978 b 254 806 154 849 196 806 z m 25 0 l 108 0 b -40 -182 19 -32 -40 -104 b 94 -304 -40 -250 8 -304 b 175 -290 126 -304 150 -300 l 197 -157 b 153 -167 181 -164 163 -167 b 104 -121 122 -167 104 -146 b 231 0 104 -75 153 -26 l 232 0 l 342 694 l 135 694 z "},"ĩ":{"ha":367,"x_min":0,"x_max":0,"o":"m 115 781 b 179 867 124 842 140 867 b 372 781 244 867 269 781 b 543 1003 474 781 533 858 l 422 1003 b 360 917 415 944 400 917 b 165 1003 288 917 264 1003 b -4 781 68 1003 1 915 z m 25 0 l 232 0 l 342 694 l 135 694 z "},"j":{"ha":364,"x_min":0,"x_max":0,"o":"m 253 806 b 392 943 325 806 392 872 b 292 1043 392 1000 350 1043 b 153 906 218 1043 153 978 b 253 806 153 849 194 806 z m -172 -336 b -50 -356 -131 -350 -96 -356 b 214 -96 96 -356 186 -268 l 339 694 l 132 694 l 11 -69 b -67 -161 1 -135 -19 -161 b -121 -153 -85 -161 -100 -160 z "},"ĵ":{"ha":364,"x_min":0,"x_max":0,"o":"m 181 778 l 281 922 l 336 778 l 485 778 l 389 1018 l 189 1018 l 18 778 z m -172 -336 b -50 -356 -131 -350 -96 -356 b 214 -96 96 -356 186 -268 l 339 694 l 132 694 l 11 -69 b -67 -161 1 -135 -19 -161 b -121 -153 -85 -161 -100 -160 z "},"k":{"ha":778,"x_min":0,"x_max":0,"o":"m 233 0 l 261 175 l 356 264 l 469 0 l 693 0 l 517 401 l 825 694 l 563 694 l 304 446 l 399 1047 l 192 1047 l 26 0 z "},"ķ":{"ha":778,"x_min":0,"x_max":0,"o":"m 233 0 l 261 175 l 356 264 l 469 0 l 693 0 l 517 401 l 825 694 l 563 694 l 304 446 l 399 1047 l 192 1047 l 26 0 z m 411 -146 b 325 -49 411 -89 378 -49 b 210 -157 260 -49 210 -96 b 279 -228 210 -197 236 -228 b 319 -219 296 -228 310 -225 b 201 -272 310 -261 272 -281 l 192 -336 b 411 -146 324 -353 411 -265 z "},"l":{"ha":369,"x_min":0,"x_max":0,"o":"m 233 0 l 399 1047 l 192 1047 l 26 0 z "},"ĺ":{"ha":369,"x_min":0,"x_max":0,"o":"m 564 1317 l 372 1317 l 222 1090 l 378 1090 z m 233 0 l 399 1047 l 192 1047 l 26 0 z "},"ľ":{"ha":369,"x_min":0,"x_max":0,"o":"m 233 0 l 399 1047 l 192 1047 l 26 0 z m 421 776 l 543 776 l 629 1046 l 464 1046 z "},"ļ":{"ha":369,"x_min":0,"x_max":0,"o":"m 233 0 l 399 1047 l 192 1047 l 26 0 z m 204 -146 b 118 -49 204 -89 171 -49 b 3 -157 53 -49 3 -96 b 72 -228 3 -197 29 -228 b 113 -219 89 -228 103 -225 b -6 -272 103 -261 65 -281 l -15 -336 b 204 -146 117 -353 204 -265 z "},"ŀ":{"ha":578,"x_min":0,"x_max":0,"o":"m 233 0 l 399 1047 l 192 1047 l 26 0 z m 478 389 b 593 504 540 389 593 443 b 478 621 593 567 539 621 b 360 504 413 621 360 568 b 478 389 360 442 413 389 z "},"ł":{"ha":369,"x_min":0,"x_max":0,"o":"m 233 0 l 315 515 l 388 549 l 410 693 l 338 661 l 399 1047 l 192 1047 l 115 561 l 42 528 l 18 382 l 92 415 l 26 0 z "},"m":{"ha":1242,"x_min":0,"x_max":0,"o":"m 232 0 l 292 375 b 432 529 308 482 351 529 b 528 396 501 529 540 474 l 465 0 l 672 0 l 732 375 b 871 531 749 482 792 531 b 969 396 943 531 982 476 l 907 0 l 1114 0 l 1185 453 b 951 715 1208 601 1107 715 b 724 597 856 715 771 669 b 538 715 693 674 629 715 b 329 619 456 715 376 679 l 328 694 l 135 694 l 25 0 z "},"n":{"ha":825,"x_min":0,"x_max":0,"o":"m 232 0 l 292 379 b 442 531 307 476 361 531 b 550 378 522 531 565 471 l 490 0 l 697 0 l 765 428 b 531 717 790 586 685 717 b 332 619 447 717 390 689 l 329 694 l 135 694 l 25 0 z "},"ń":{"ha":825,"x_min":0,"x_max":0,"o":"m 761 1004 l 569 1004 l 419 778 l 575 778 z m 232 0 l 292 379 b 442 531 307 476 361 531 b 550 378 522 531 565 471 l 490 0 l 697 0 l 765 428 b 531 717 790 586 685 717 b 332 619 447 717 390 689 l 329 694 l 135 694 l 25 0 z "},"ň":{"ha":825,"x_min":0,"x_max":0,"o":"m 408 781 l 608 781 l 779 1021 l 617 1021 l 517 876 l 461 1021 l 313 1021 z m 232 0 l 292 379 b 442 531 307 476 361 531 b 550 378 522 531 565 471 l 490 0 l 697 0 l 765 428 b 531 717 790 586 685 717 b 332 619 447 717 390 689 l 329 694 l 135 694 l 25 0 z "},"ņ":{"ha":825,"x_min":0,"x_max":0,"o":"m 232 0 l 292 379 b 442 531 307 476 361 531 b 550 378 522 531 565 471 l 490 0 l 697 0 l 765 428 b 531 717 790 586 685 717 b 332 619 447 717 390 689 l 329 694 l 135 694 l 25 0 z m 438 -146 b 351 -49 438 -89 404 -49 b 236 -157 286 -49 236 -96 b 306 -228 236 -197 263 -228 b 346 -219 322 -228 336 -225 b 228 -272 336 -261 299 -281 l 218 -336 b 438 -146 350 -353 438 -265 z "},"ŋ":{"ha":825,"x_min":0,"x_max":0,"o":"m 232 0 l 292 379 b 442 531 307 476 361 531 b 550 378 522 531 565 471 l 479 -69 b 401 -161 469 -135 449 -161 b 347 -153 383 -161 368 -160 l 296 -336 b 418 -356 338 -350 372 -356 b 682 -96 564 -356 654 -268 l 765 428 b 531 717 790 586 685 717 b 332 619 447 717 390 689 l 329 694 l 135 694 l 25 0 z "},"ñ":{"ha":825,"x_min":0,"x_max":0,"o":"m 361 781 b 425 867 369 842 386 867 b 618 781 490 867 515 781 b 789 1003 719 781 779 858 l 668 1003 b 606 917 661 944 646 917 b 411 1003 533 917 510 1003 b 242 781 314 1003 247 915 z m 232 0 l 292 379 b 442 531 307 476 361 531 b 550 378 522 531 565 471 l 490 0 l 697 0 l 765 428 b 531 717 790 586 685 717 b 332 619 447 717 390 689 l 329 694 l 135 694 l 25 0 z "},"o":{"ha":839,"x_min":0,"x_max":0,"o":"m 39 299 b 385 -17 39 110 178 -17 b 800 399 618 -17 800 165 b 454 714 800 588 661 714 b 39 299 221 714 39 532 z m 250 317 b 444 532 250 438 338 532 b 589 381 533 532 589 471 b 394 165 589 260 501 165 b 250 317 306 165 250 226 z "},"ó":{"ha":839,"x_min":0,"x_max":0,"o":"m 750 1004 l 558 1004 l 408 778 l 564 778 z m 39 299 b 385 -17 39 110 178 -17 b 800 399 618 -17 800 165 b 454 714 800 588 661 714 b 39 299 221 714 39 532 z m 250 317 b 444 532 250 438 338 532 b 589 381 533 532 589 471 b 394 165 589 260 501 165 b 250 317 306 165 250 226 z "},"ô":{"ha":839,"x_min":0,"x_max":0,"o":"m 417 778 l 517 922 l 572 778 l 721 778 l 625 1018 l 425 1018 l 254 778 z m 39 299 b 385 -17 39 110 178 -17 b 800 399 618 -17 800 165 b 454 714 800 588 661 714 b 39 299 221 714 39 532 z m 250 317 b 444 532 250 438 338 532 b 589 381 533 532 589 471 b 394 165 589 260 501 165 b 250 317 306 165 250 226 z "},"ö":{"ha":839,"x_min":0,"x_max":0,"o":"m 356 788 b 478 910 421 788 478 844 b 389 1000 478 963 442 1000 b 267 876 322 1000 267 944 b 356 788 267 822 301 788 z m 622 788 b 744 910 689 788 744 844 b 656 1000 744 964 708 1000 b 535 876 590 1000 535 944 b 622 788 535 822 568 788 z m 39 299 b 385 -17 39 110 178 -17 b 800 399 618 -17 800 165 b 454 714 800 588 661 714 b 39 299 221 714 39 532 z m 250 317 b 444 532 250 438 338 532 b 589 381 533 532 589 471 b 394 165 589 260 501 165 b 250 317 306 165 250 226 z "},"ò":{"ha":839,"x_min":0,"x_max":0,"o":"m 558 778 l 482 1004 l 304 1004 l 418 778 z m 39 299 b 385 -17 39 110 178 -17 b 800 399 618 -17 800 165 b 454 714 800 588 661 714 b 39 299 221 714 39 532 z m 250 317 b 444 532 250 438 338 532 b 589 381 533 532 589 471 b 394 165 589 260 501 165 b 250 317 306 165 250 226 z "},"ő":{"ha":839,"x_min":0,"x_max":0,"o":"m 632 1004 l 464 1004 l 301 778 l 447 778 z m 872 1004 l 704 1004 l 542 778 l 686 778 z m 39 299 b 385 -17 39 110 178 -17 b 800 399 618 -17 800 165 b 454 714 800 588 661 714 b 39 299 221 714 39 532 z m 250 317 b 444 532 250 438 338 532 b 589 381 533 532 589 471 b 394 165 589 260 501 165 b 250 317 306 165 250 226 z "},"ō":{"ha":839,"x_min":0,"x_max":0,"o":"m 297 815 l 690 815 l 713 957 l 319 957 z m 39 299 b 385 -17 39 110 178 -17 b 800 399 618 -17 800 165 b 454 714 800 588 661 714 b 39 299 221 714 39 532 z m 250 317 b 444 532 250 438 338 532 b 589 381 533 532 589 471 b 394 165 589 260 501 165 b 250 317 306 165 250 226 z "},"ø":{"ha":839,"x_min":0,"x_max":0,"o":"m 39 299 b 125 79 39 210 69 133 l 11 -68 l 196 -68 l 250 4 b 385 -17 290 -10 336 -17 b 800 399 618 -17 800 165 b 717 615 800 486 769 561 l 825 758 l 649 758 l 596 690 b 454 714 554 706 507 714 b 39 299 221 714 39 532 z m 250 317 b 444 532 250 438 338 532 b 472 529 454 532 464 531 l 260 254 b 250 317 254 274 250 294 z m 589 381 b 394 165 589 260 501 165 b 375 167 388 165 381 165 l 581 438 b 589 381 586 421 589 401 z "},"ǿ":{"ha":839,"x_min":0,"x_max":0,"o":"m 750 1004 l 558 1004 l 408 778 l 564 778 z m 39 299 b 125 79 39 210 69 133 l 11 -68 l 196 -68 l 250 4 b 385 -17 290 -10 336 -17 b 800 399 618 -17 800 165 b 717 615 800 486 769 561 l 825 758 l 649 758 l 596 690 b 454 714 554 706 507 714 b 39 299 221 714 39 532 z m 250 317 b 444 532 250 438 338 532 b 472 529 454 532 464 531 l 260 254 b 250 317 254 274 250 294 z m 589 381 b 394 165 589 260 501 165 b 375 167 388 165 381 165 l 581 438 b 589 381 586 421 589 401 z "},"õ":{"ha":839,"x_min":0,"x_max":0,"o":"m 350 781 b 414 867 358 842 375 867 b 607 781 479 867 504 781 b 778 1003 708 781 768 858 l 657 1003 b 594 917 650 944 635 917 b 400 1003 522 917 499 1003 b 231 781 303 1003 236 915 z m 39 299 b 385 -17 39 110 178 -17 b 800 399 618 -17 800 165 b 454 714 800 588 661 714 b 39 299 221 714 39 532 z m 250 317 b 444 532 250 438 338 532 b 589 381 533 532 589 471 b 394 165 589 260 501 165 b 250 317 306 165 250 226 z "},"œ":{"ha":1332,"x_min":0,"x_max":0,"o":"m 39 299 b 385 -17 39 110 178 -17 b 657 88 493 -17 586 22 b 917 -17 711 19 800 -17 b 1272 233 1081 -17 1225 85 l 1069 233 b 928 153 1043 182 993 153 b 789 292 839 153 794 199 l 1279 294 l 1288 349 b 988 714 1322 571 1203 714 b 717 606 882 714 788 674 b 454 714 660 674 571 714 b 39 299 221 714 39 532 z m 975 546 b 1093 421 1060 546 1106 497 l 810 421 b 975 546 840 496 901 546 z m 250 317 b 444 532 250 438 338 532 b 589 381 533 532 589 471 b 394 165 589 260 501 165 b 250 317 306 165 250 226 z "},"p":{"ha":872,"x_min":0,"x_max":0,"o":"m -28 -333 l 179 -333 l 243 92 b 468 -17 281 29 372 -17 b 831 394 676 -17 831 150 b 546 714 831 583 710 714 b 328 610 450 714 378 675 l 329 694 l 135 694 z m 285 317 b 479 532 285 438 372 532 b 624 381 568 532 624 471 b 429 165 624 260 536 165 b 285 317 340 165 285 226 z "},"þ":{"ha":871,"x_min":0,"x_max":0,"o":"m 829 394 b 544 714 829 583 708 714 b 326 610 449 714 376 675 l 397 1046 l 190 1046 l -28 -332 l 179 -332 l 242 92 b 467 -17 279 29 371 -17 b 829 394 675 -17 829 150 z m 622 381 b 428 165 622 260 535 165 b 283 317 339 165 283 226 b 478 532 283 438 371 532 b 622 381 567 532 622 471 z "},"q":{"ha":874,"x_min":0,"x_max":0,"o":"m 42 303 b 326 -17 42 114 163 -17 b 544 88 422 -17 494 22 l 479 -333 l 686 -333 l 849 694 l 654 694 l 629 606 b 404 714 592 668 500 714 b 42 303 196 714 42 547 z m 249 317 b 443 532 249 438 336 532 b 588 381 532 532 588 471 b 393 165 588 260 500 165 b 249 317 304 165 249 226 z "},"r":{"ha":572,"x_min":0,"x_max":0,"o":"m 600 696 b 521 706 575 703 547 706 b 325 593 433 706 364 661 l 329 694 l 135 694 l 25 0 l 232 0 l 281 308 b 503 501 301 444 383 501 l 569 501 z "},"ŕ":{"ha":572,"x_min":0,"x_max":0,"o":"m 639 1004 l 447 1004 l 297 778 l 453 778 z m 600 696 b 521 706 575 703 547 706 b 325 593 433 706 364 661 l 329 694 l 135 694 l 25 0 l 232 0 l 281 308 b 503 501 301 444 383 501 l 569 501 z "},"ř":{"ha":572,"x_min":0,"x_max":0,"o":"m 286 781 l 486 781 l 657 1021 l 494 1021 l 394 876 l 339 1021 l 190 1021 z m 600 696 b 521 706 575 703 547 706 b 325 593 433 706 364 661 l 329 694 l 135 694 l 25 0 l 232 0 l 281 308 b 503 501 301 444 383 501 l 569 501 z "},"ŗ":{"ha":572,"x_min":0,"x_max":0,"o":"m 600 696 b 521 706 575 703 547 706 b 325 593 433 706 364 661 l 329 694 l 135 694 l 25 0 l 232 0 l 281 308 b 503 501 301 444 383 501 l 569 501 z m 204 -146 b 118 -49 204 -89 171 -49 b 3 -157 53 -49 3 -96 b 72 -228 3 -197 29 -228 b 113 -219 89 -228 103 -225 b -6 -272 103 -261 65 -281 l -15 -336 b 204 -146 117 -353 204 -265 z "},"s":{"ha":653,"x_min":0,"x_max":0,"o":"m 7 219 b 290 -15 7 76 118 -15 b 604 225 488 -15 604 74 b 456 397 604 308 556 365 l 336 436 b 268 503 290 451 268 474 b 349 563 268 542 296 563 b 431 482 399 563 431 531 l 628 482 b 367 714 628 618 521 714 b 72 479 183 714 72 625 b 228 296 72 385 132 326 l 350 257 b 406 200 392 244 406 231 b 306 138 406 163 365 138 b 204 219 243 138 207 167 z "},"ś":{"ha":653,"x_min":0,"x_max":0,"o":"m 640 1006 l 449 1006 l 299 779 l 454 779 z m 7 219 b 290 -15 7 76 118 -15 b 604 225 488 -15 604 74 b 456 397 604 308 556 365 l 336 436 b 268 503 290 451 268 474 b 349 563 268 542 296 563 b 431 482 399 563 431 531 l 628 482 b 367 714 628 618 521 714 b 72 479 183 714 72 625 b 228 296 72 385 132 326 l 350 257 b 406 200 392 244 406 231 b 306 138 406 163 365 138 b 204 219 243 138 207 167 z "},"š":{"ha":653,"x_min":0,"x_max":0,"o":"m 288 782 l 488 782 l 658 1022 l 496 1022 l 396 878 l 340 1022 l 192 1022 z m 7 219 b 290 -15 7 76 118 -15 b 604 225 488 -15 604 74 b 456 397 604 308 556 365 l 336 436 b 268 503 290 451 268 474 b 349 563 268 542 296 563 b 431 482 399 563 431 531 l 628 482 b 367 714 628 618 521 714 b 72 479 183 714 72 625 b 228 296 72 385 132 326 l 350 257 b 406 200 392 244 406 231 b 306 138 406 163 365 138 b 204 219 243 138 207 167 z "},"ş":{"ha":653,"x_min":0,"x_max":0,"o":"m 7 219 b 222 -10 7 96 89 11 l 175 -85 l 186 -137 b 254 -126 206 -131 229 -126 b 307 -171 288 -126 307 -142 b 221 -232 307 -210 272 -232 b 126 -206 188 -232 157 -221 l 113 -293 b 228 -319 138 -307 181 -319 b 414 -162 340 -319 414 -258 b 310 -58 414 -92 357 -58 b 265 -65 290 -58 276 -61 l 299 -15 b 604 225 488 -15 604 74 b 456 397 604 308 556 365 l 336 436 b 268 503 290 451 268 474 b 349 563 268 542 296 563 b 431 482 399 563 431 531 l 628 482 b 367 714 628 618 521 714 b 72 479 183 714 72 625 b 228 296 72 385 132 326 l 350 257 b 406 200 392 244 406 231 b 306 138 406 163 365 138 b 204 219 243 138 207 167 z "},"ŝ":{"ha":653,"x_min":0,"x_max":0,"o":"m 307 779 l 407 924 l 463 779 l 611 779 l 515 1019 l 315 1019 l 144 779 z m 7 219 b 290 -15 7 76 118 -15 b 604 225 488 -15 604 74 b 456 397 604 308 556 365 l 336 436 b 268 503 290 451 268 474 b 349 563 268 542 296 563 b 431 482 399 563 431 531 l 628 482 b 367 714 628 618 521 714 b 72 479 183 714 72 625 b 228 296 72 385 132 326 l 350 257 b 406 200 392 244 406 231 b 306 138 406 163 365 138 b 204 219 243 138 207 167 z "},"ș":{"ha":653,"x_min":0,"x_max":0,"o":"m 7 219 b 290 -15 7 76 118 -15 b 604 225 488 -15 604 74 b 456 397 604 308 556 365 l 336 436 b 268 503 290 451 268 474 b 349 563 268 542 296 563 b 431 482 399 563 431 531 l 628 482 b 367 714 628 618 521 714 b 72 479 183 714 72 625 b 228 296 72 385 132 326 l 350 257 b 406 200 392 244 406 231 b 306 138 406 163 365 138 b 204 219 243 138 207 167 z m 344 -146 b 258 -49 344 -89 311 -49 b 143 -157 193 -49 143 -96 b 213 -228 143 -197 169 -228 b 253 -219 229 -228 243 -225 b 135 -272 243 -261 206 -281 l 125 -336 b 344 -146 257 -353 344 -265 z "},"ß":{"ha":835,"x_min":0,"x_max":0,"o":"m 232 0 l 347 736 b 493 876 361 824 408 876 b 599 776 551 876 599 842 b 464 646 599 697 543 646 l 404 646 l 378 481 l 438 481 b 594 347 525 481 594 438 b 422 189 594 243 524 189 l 328 189 l 299 10 b 424 0 326 1 375 0 b 804 351 660 0 804 133 b 668 571 804 435 763 522 b 804 797 744 610 804 679 b 510 1047 804 936 692 1047 b 138 714 279 1047 169 917 l 25 0 z "},"t":{"ha":496,"x_min":0,"x_max":0,"o":"m 297 0 l 379 522 l 508 522 l 536 694 l 407 694 l 440 908 l 233 908 l 200 694 l 71 694 l 43 522 l 172 522 l 90 0 z "},"ŧ":{"ha":496,"x_min":0,"x_max":0,"o":"m 297 0 l 339 267 l 436 267 l 461 426 l 364 426 l 379 522 l 508 522 l 536 694 l 407 694 l 440 908 l 233 908 l 200 694 l 71 694 l 43 522 l 172 522 l 157 426 l 60 426 l 35 267 l 132 267 l 90 0 z "},"ť":{"ha":496,"x_min":0,"x_max":0,"o":"m 456 757 l 578 757 l 664 1026 l 499 1026 z m 297 0 l 379 522 l 508 522 l 536 694 l 407 694 l 440 908 l 233 908 l 200 694 l 71 694 l 43 522 l 172 522 l 90 0 z "},"ţ":{"ha":496,"x_min":0,"x_max":0,"o":"m 46 -293 b 161 -319 71 -307 114 -319 b 347 -162 274 -319 347 -258 b 243 -58 347 -92 290 -58 b 199 -65 224 -58 210 -61 l 242 0 l 297 0 l 379 522 l 508 522 l 536 694 l 407 694 l 440 908 l 233 908 l 200 694 l 71 694 l 43 522 l 172 522 l 90 0 l 161 0 l 108 -85 l 119 -137 b 188 -126 139 -131 163 -126 b 240 -171 221 -126 240 -142 b 154 -232 240 -210 206 -232 b 60 -206 121 -232 90 -221 z "},"ț":{"ha":496,"x_min":0,"x_max":0,"o":"m 297 0 l 379 522 l 508 522 l 536 694 l 407 694 l 440 908 l 233 908 l 200 694 l 71 694 l 43 522 l 172 522 l 90 0 z m 278 -146 b 192 -49 278 -89 244 -49 b 76 -157 126 -49 76 -96 b 146 -228 76 -197 103 -228 b 186 -219 163 -228 176 -225 b 68 -272 176 -261 139 -281 l 58 -336 b 278 -146 190 -353 278 -265 z "},"u":{"ha":817,"x_min":0,"x_max":0,"o":"m 585 694 l 525 315 b 376 168 510 218 457 168 b 275 321 303 168 260 228 l 335 694 l 128 694 l 60 271 b 288 -18 35 113 133 -18 b 485 75 371 -18 426 10 l 488 0 l 682 0 l 792 694 z "},"ú":{"ha":817,"x_min":0,"x_max":0,"o":"m 758 1004 l 567 1004 l 417 778 l 572 778 z m 585 694 l 525 315 b 376 168 510 218 457 168 b 275 321 303 168 260 228 l 335 694 l 128 694 l 60 271 b 288 -18 35 113 133 -18 b 485 75 371 -18 426 10 l 488 0 l 682 0 l 792 694 z "},"û":{"ha":817,"x_min":0,"x_max":0,"o":"m 425 778 l 525 922 l 581 778 l 729 778 l 633 1018 l 433 1018 l 263 778 z m 585 694 l 525 315 b 376 168 510 218 457 168 b 275 321 303 168 260 228 l 335 694 l 128 694 l 60 271 b 288 -18 35 113 133 -18 b 485 75 371 -18 426 10 l 488 0 l 682 0 l 792 694 z "},"ü":{"ha":817,"x_min":0,"x_max":0,"o":"m 364 788 b 486 910 429 788 486 844 b 397 1000 486 963 450 1000 b 275 876 331 1000 275 944 b 364 788 275 822 310 788 z m 631 788 b 753 910 697 788 753 844 b 664 1000 753 964 717 1000 b 543 876 599 1000 543 944 b 631 788 543 822 576 788 z m 585 694 l 525 315 b 376 168 510 218 457 168 b 275 321 303 168 260 228 l 335 694 l 128 694 l 60 271 b 288 -18 35 113 133 -18 b 485 75 371 -18 426 10 l 488 0 l 682 0 l 792 694 z "},"ù":{"ha":817,"x_min":0,"x_max":0,"o":"m 567 778 l 490 1004 l 313 1004 l 426 778 z m 585 694 l 525 315 b 376 168 510 218 457 168 b 275 321 303 168 260 228 l 335 694 l 128 694 l 60 271 b 288 -18 35 113 133 -18 b 485 75 371 -18 426 10 l 488 0 l 682 0 l 792 694 z "},"ű":{"ha":817,"x_min":0,"x_max":0,"o":"m 640 1004 l 472 1004 l 310 778 l 456 778 z m 881 1004 l 713 1004 l 550 778 l 694 778 z m 585 694 l 525 315 b 376 168 510 218 457 168 b 275 321 303 168 260 228 l 335 694 l 128 694 l 60 271 b 288 -18 35 113 133 -18 b 485 75 371 -18 426 10 l 488 0 l 682 0 l 792 694 z "},"ū":{"ha":817,"x_min":0,"x_max":0,"o":"m 306 815 l 699 815 l 721 957 l 328 957 z m 585 694 l 525 315 b 376 168 510 218 457 168 b 275 321 303 168 260 228 l 335 694 l 128 694 l 60 271 b 288 -18 35 113 133 -18 b 485 75 371 -18 426 10 l 488 0 l 682 0 l 792 694 z "},"ų":{"ha":817,"x_min":0,"x_max":0,"o":"m 558 0 b 410 -182 469 -32 410 -104 b 544 -304 410 -250 458 -304 b 625 -290 576 -304 600 -300 l 647 -157 b 603 -167 631 -164 613 -167 b 554 -121 572 -167 554 -146 b 681 0 554 -75 603 -26 l 682 0 l 792 694 l 585 694 l 525 315 b 376 168 510 218 457 168 b 275 321 303 168 260 228 l 335 694 l 128 694 l 60 271 b 288 -18 35 113 133 -18 b 485 75 371 -18 426 10 l 488 0 z "},"ů":{"ha":817,"x_min":0,"x_max":0,"o":"m 501 754 b 717 968 625 754 717 846 b 542 1136 717 1067 643 1136 b 329 918 421 1136 329 1043 b 501 754 329 821 399 754 z m 513 860 b 442 933 469 860 442 889 b 532 1031 442 990 479 1031 b 604 958 575 1031 604 1001 b 513 860 604 901 567 860 z m 585 694 l 525 315 b 376 168 510 218 457 168 b 275 321 303 168 260 228 l 335 694 l 128 694 l 60 271 b 288 -18 35 113 133 -18 b 485 75 371 -18 426 10 l 488 0 l 682 0 l 792 694 z "},"ũ":{"ha":817,"x_min":0,"x_max":0,"o":"m 358 781 b 422 867 367 842 383 867 b 615 781 488 867 513 781 b 786 1003 717 781 776 858 l 665 1003 b 603 917 658 944 643 917 b 408 1003 531 917 507 1003 b 239 781 311 1003 244 915 z m 585 694 l 525 315 b 376 168 510 218 457 168 b 275 321 303 168 260 228 l 335 694 l 128 694 l 60 271 b 288 -18 35 113 133 -18 b 485 75 371 -18 426 10 l 488 0 l 682 0 l 792 694 z "},"v":{"ha":765,"x_min":0,"x_max":0,"o":"m 217 0 l 421 0 l 815 694 l 586 694 l 453 440 b 350 224 421 378 381 290 b 315 440 340 290 329 361 l 269 694 l 61 694 z "},"w":{"ha":1125,"x_min":0,"x_max":0,"o":"m 178 0 l 382 0 l 475 226 b 572 467 511 313 560 433 b 597 231 574 433 586 308 l 632 0 l 821 0 l 1168 694 l 940 694 l 836 458 b 757 264 818 418 782 328 b 742 458 754 318 744 432 l 714 694 l 501 694 l 397 458 b 318 264 368 392 338 317 b 303 458 315 326 310 400 l 275 694 l 68 694 z "},"ẃ":{"ha":1125,"x_min":0,"x_max":0,"o":"m 886 1004 l 694 1004 l 544 778 l 700 778 z m 178 0 l 382 0 l 475 226 b 572 467 511 313 560 433 b 597 231 574 433 586 308 l 632 0 l 821 0 l 1168 694 l 940 694 l 836 458 b 757 264 818 418 782 328 b 742 458 754 318 744 432 l 714 694 l 501 694 l 397 458 b 318 264 368 392 338 317 b 303 458 315 326 310 400 l 275 694 l 68 694 z "},"ŵ":{"ha":1125,"x_min":0,"x_max":0,"o":"m 553 778 l 653 922 l 708 778 l 857 778 l 761 1018 l 561 1018 l 390 778 z m 178 0 l 382 0 l 475 226 b 572 467 511 313 560 433 b 597 231 574 433 586 308 l 632 0 l 821 0 l 1168 694 l 940 694 l 836 458 b 757 264 818 418 782 328 b 742 458 754 318 744 432 l 714 694 l 501 694 l 397 458 b 318 264 368 392 338 317 b 303 458 315 326 310 400 l 275 694 l 68 694 z "},"ẅ":{"ha":1125,"x_min":0,"x_max":0,"o":"m 492 788 b 614 910 557 788 614 844 b 525 1000 614 963 578 1000 b 403 876 458 1000 403 944 b 492 788 403 822 438 788 z m 758 788 b 881 910 825 788 881 844 b 792 1000 881 964 844 1000 b 671 876 726 1000 671 944 b 758 788 671 822 704 788 z m 178 0 l 382 0 l 475 226 b 572 467 511 313 560 433 b 597 231 574 433 586 308 l 632 0 l 821 0 l 1168 694 l 940 694 l 836 458 b 757 264 818 418 782 328 b 742 458 754 318 744 432 l 714 694 l 501 694 l 397 458 b 318 264 368 392 338 317 b 303 458 315 326 310 400 l 275 694 l 68 694 z "},"ẁ":{"ha":1125,"x_min":0,"x_max":0,"o":"m 694 778 l 618 1004 l 440 1004 l 554 778 z m 178 0 l 382 0 l 475 226 b 572 467 511 313 560 433 b 597 231 574 433 586 308 l 632 0 l 821 0 l 1168 694 l 940 694 l 836 458 b 757 264 818 418 782 328 b 742 458 754 318 744 432 l 714 694 l 501 694 l 397 458 b 318 264 368 392 338 317 b 303 458 315 326 310 400 l 275 694 l 68 694 z "},"x":{"ha":740,"x_min":0,"x_max":0,"o":"m 206 0 l 350 204 l 440 0 l 665 0 l 499 340 l 783 694 l 539 694 l 390 479 l 293 694 l 68 694 l 244 336 l -42 0 z "},"y":{"ha":763,"x_min":0,"x_max":0,"o":"m -83 -332 b 51 -350 -44 -343 -1 -350 b 335 -151 188 -350 267 -271 l 813 694 l 586 694 l 349 242 l 269 694 l 61 694 l 218 -8 l 190 -60 b 58 -157 154 -129 113 -157 l -56 -157 z "},"ý":{"ha":763,"x_min":0,"x_max":0,"o":"m 724 1004 l 532 1004 l 382 778 l 538 778 z m -83 -332 b 51 -350 -44 -343 -1 -350 b 335 -151 188 -350 267 -271 l 813 694 l 586 694 l 349 242 l 269 694 l 61 694 l 218 -8 l 190 -60 b 58 -157 154 -129 113 -157 l -56 -157 z "},"ŷ":{"ha":763,"x_min":0,"x_max":0,"o":"m 390 778 l 490 922 l 546 778 l 694 778 l 599 1018 l 399 1018 l 228 778 z m -83 -332 b 51 -350 -44 -343 -1 -350 b 335 -151 188 -350 267 -271 l 813 694 l 586 694 l 349 242 l 269 694 l 61 694 l 218 -8 l 190 -60 b 58 -157 154 -129 113 -157 l -56 -157 z "},"ÿ":{"ha":763,"x_min":0,"x_max":0,"o":"m 329 788 b 451 910 394 788 451 844 b 363 1000 451 963 415 1000 b 240 876 296 1000 240 944 b 329 788 240 822 275 788 z m 596 788 b 718 910 663 788 718 844 b 629 1000 718 964 682 1000 b 508 876 564 1000 508 944 b 596 788 508 822 542 788 z m -83 -332 b 51 -350 -44 -343 -1 -350 b 335 -151 188 -350 267 -271 l 813 694 l 586 694 l 349 242 l 269 694 l 61 694 l 218 -8 l 190 -60 b 58 -157 154 -129 113 -157 l -56 -157 z "},"ỳ":{"ha":763,"x_min":0,"x_max":0,"o":"m 532 778 l 456 1004 l 278 1004 l 392 778 z m -83 -332 b 51 -350 -44 -343 -1 -350 b 335 -151 188 -350 267 -271 l 813 694 l 586 694 l 349 242 l 269 694 l 61 694 l 218 -8 l 190 -60 b 58 -157 154 -129 113 -157 l -56 -157 z "},"z":{"ha":669,"x_min":0,"x_max":0,"o":"m 564 0 l 592 172 l 278 172 l 646 522 l 674 694 l 106 694 l 78 522 l 385 522 l 24 172 l -4 0 z "},"ź":{"ha":669,"x_min":0,"x_max":0,"o":"m 667 1004 l 475 1004 l 325 778 l 481 778 z m 564 0 l 592 172 l 278 172 l 646 522 l 674 694 l 106 694 l 78 522 l 385 522 l 24 172 l -4 0 z "},"ž":{"ha":669,"x_min":0,"x_max":0,"o":"m 314 781 l 514 781 l 685 1021 l 522 1021 l 422 876 l 367 1021 l 218 1021 z m 564 0 l 592 172 l 278 172 l 646 522 l 674 694 l 106 694 l 78 522 l 385 522 l 24 172 l -4 0 z "},"ż":{"ha":669,"x_min":0,"x_max":0,"o":"m 404 788 b 533 917 474 788 533 847 b 440 1011 533 974 496 1011 b 311 882 371 1011 311 953 b 404 788 311 824 347 788 z m 564 0 l 592 172 l 278 172 l 646 522 l 674 694 l 106 694 l 78 522 l 385 522 l 24 172 l -4 0 z "},"ﬀ":{"ha":953,"x_min":0,"x_max":0,"o":"m 71 694 l 43 522 l 139 522 l 56 0 l 261 0 l 343 522 l 597 522 l 514 0 l 719 0 l 801 522 l 965 522 l 993 694 l 828 694 l 838 753 b 961 861 849 828 889 861 l 1019 861 l 1047 1039 b 956 1047 1017 1044 983 1047 b 633 753 775 1047 664 946 l 624 694 l 369 694 l 379 753 b 503 861 390 828 431 861 l 561 861 l 589 1039 b 497 1047 558 1044 525 1047 b 175 753 317 1047 206 946 l 165 694 z "},"ﬃ":{"ha":1315,"x_min":0,"x_max":0,"o":"m 71 694 l 43 522 l 139 522 l 56 0 l 261 0 l 343 522 l 597 522 l 514 0 l 719 0 l 801 522 l 1056 522 l 974 0 l 1181 0 l 1290 694 l 828 694 l 838 753 b 961 861 849 828 889 861 l 1019 861 l 1047 1039 b 956 1047 1017 1044 983 1047 b 633 753 775 1047 664 946 l 624 694 l 369 694 l 379 753 b 503 861 390 828 431 861 l 561 861 l 589 1039 b 497 1047 558 1044 525 1047 b 175 753 317 1047 206 946 l 165 694 z m 1203 806 b 1342 943 1275 806 1342 872 b 1242 1043 1342 1000 1300 1043 b 1103 906 1168 1043 1103 978 b 1203 806 1103 849 1144 806 z "},"ﬄ":{"ha":1315,"x_min":0,"x_max":0,"o":"m 71 694 l 43 522 l 139 522 l 56 0 l 261 0 l 343 522 l 597 522 l 514 0 l 719 0 l 801 522 l 1054 522 l 972 0 l 1179 0 l 1344 1047 l 1138 1047 l 1082 694 l 828 694 l 838 753 b 961 861 849 828 889 861 l 1019 861 l 1047 1039 b 956 1047 1017 1044 983 1047 b 633 753 775 1047 664 946 l 624 694 l 369 694 l 379 753 b 503 861 390 828 431 861 l 561 861 l 589 1039 b 497 1047 558 1044 525 1047 b 175 753 317 1047 206 946 l 165 694 z "},"ﬁ":{"ha":857,"x_min":0,"x_max":0,"o":"m 515 0 l 722 0 l 832 694 l 369 694 l 379 753 b 503 861 390 828 431 861 l 561 861 l 589 1039 b 497 1047 558 1044 525 1047 b 175 753 317 1047 206 946 l 165 694 l 71 694 l 43 522 l 139 522 l 56 0 l 261 0 l 343 522 l 597 522 z m 744 806 b 883 943 817 806 883 872 b 783 1043 883 1000 842 1043 b 644 906 710 1043 644 978 b 744 806 644 849 686 806 z "},"ﬂ":{"ha":856,"x_min":0,"x_max":0,"o":"m 71 694 l 43 522 l 139 522 l 56 0 l 261 0 l 343 522 l 594 522 l 513 0 l 719 0 l 885 1047 l 678 1047 l 622 694 l 369 694 l 379 753 b 503 861 390 828 431 861 l 561 861 l 589 1039 b 497 1047 558 1044 525 1047 b 175 753 317 1047 206 946 l 165 694 z "},"Ω":{"ha":910,"x_min":0,"x_max":0,"o":"m 357 0 l 381 151 b 276 333 315 183 276 251 b 476 547 276 463 351 547 b 639 385 574 547 639 482 b 468 151 639 268 568 189 l 444 0 l 778 0 l 801 151 l 683 151 b 822 417 765 211 822 318 b 483 717 822 590 683 717 b 101 356 268 717 101 564 b 181 151 101 275 128 206 l 46 151 l 22 0 z "},"π":{"ha":907,"x_min":0,"x_max":0,"o":"m 82 0 l 285 0 l 368 526 l 569 526 l 521 219 b 683 -6 501 92 546 -6 b 817 7 719 -6 763 -1 l 844 179 l 785 179 b 726 239 735 179 721 201 l 771 526 l 899 526 l 925 694 l 72 694 l 46 526 l 165 526 z "},"₀":{"ha":599,"x_min":0,"x_max":0,"o":"m 0 107 b 232 -150 0 -53 88 -150 b 542 235 417 -150 542 11 b 313 492 542 396 456 492 b 0 107 129 492 0 326 z m 136 107 b 299 374 136 258 203 374 b 406 235 368 374 406 325 b 247 -33 406 82 340 -33 b 136 107 176 -33 136 17 z "},"₁":{"ha":375,"x_min":0,"x_max":0,"o":"m 185 360 l 106 -139 l 240 -139 l 338 479 l 50 479 l 31 360 z "},"₂":{"ha":500,"x_min":0,"x_max":0,"o":"m 393 -139 l 413 -17 l 213 -17 l 339 79 b 458 303 418 140 458 215 b 260 492 458 419 382 492 b 10 261 132 492 38 406 l 150 261 b 249 368 161 329 197 368 b 321 290 296 368 321 340 b 243 160 321 242 296 199 l -19 -37 l -36 -139 z "},"₃":{"ha":496,"x_min":0,"x_max":0,"o":"m 451 371 l 468 479 l 74 479 l 54 358 l 275 358 l 126 240 l 113 151 l 188 151 b 288 64 247 151 288 115 b 194 -28 288 8 250 -28 b 113 60 142 -28 113 4 l -22 60 b 193 -150 -22 -69 61 -150 b 422 69 331 -150 422 -62 b 286 240 422 153 369 217 z "},"₄":{"ha":521,"x_min":0,"x_max":0,"o":"m 450 -31 l 469 89 l 396 89 l 457 479 l 288 479 l -29 92 l -49 -31 l 247 -31 l 231 -139 l 360 -139 l 376 -31 z m 118 89 l 303 318 l 267 89 z "},"₅":{"ha":501,"x_min":0,"x_max":0,"o":"m -22 60 b 193 -150 -22 -69 61 -150 b 440 103 329 -150 440 -33 b 253 286 440 208 367 286 b 181 272 226 286 203 282 l 215 353 l 443 353 l 463 479 l 133 479 l 3 147 l 124 135 b 221 182 149 167 179 182 b 304 93 275 182 304 144 b 194 -28 304 22 258 -28 b 113 60 142 -28 113 4 z "},"₆":{"ha":544,"x_min":0,"x_max":0,"o":"m 128 322 b -14 50 26 210 -14 133 b 203 -150 -14 -64 81 -150 b 472 111 358 -150 472 -40 b 278 293 472 217 392 293 b 261 292 272 293 267 293 l 433 479 l 271 479 z m 122 63 b 242 186 122 133 174 186 b 336 92 297 186 336 147 b 218 -32 336 21 285 -32 b 122 63 163 -32 122 7 z "},"₇":{"ha":476,"x_min":0,"x_max":0,"o":"m 453 358 l 472 479 l 46 479 l 26 358 l 310 358 l 47 -139 l 193 -139 z "},"₈":{"ha":542,"x_min":0,"x_max":0,"o":"m -18 28 b 214 -150 -18 -76 78 -150 b 461 49 363 -150 461 -71 b 372 182 461 113 426 165 b 478 325 439 203 478 256 b 276 492 478 424 394 492 b 58 304 147 492 58 415 b 117 197 58 257 79 218 b -18 28 35 176 -18 111 z m 171 304 b 268 378 171 350 208 378 b 357 310 321 378 357 350 b 260 236 357 264 319 236 b 171 304 207 236 171 264 z m 119 44 b 226 128 119 94 161 128 b 328 54 289 128 328 99 b 222 -29 328 1 289 -29 b 119 44 160 -29 119 0 z "},"₉":{"ha":544,"x_min":0,"x_max":0,"o":"m 360 18 b 501 290 461 131 501 207 b 285 490 501 404 407 490 b 15 229 129 490 15 381 b 210 47 15 124 96 47 b 226 49 215 47 221 47 l 54 -139 l 217 -139 z m 365 278 b 246 154 365 207 314 154 b 151 249 190 154 151 193 b 269 372 151 319 203 372 b 365 278 325 372 365 333 z "},"⁰":{"ha":600,"x_min":0,"x_max":0,"o":"m 0 704 b 232 447 0 544 88 447 b 542 832 417 447 542 608 b 313 1089 542 993 456 1089 b 0 704 129 1089 0 924 z m 136 704 b 299 971 136 856 203 971 b 406 832 368 971 406 922 b 247 564 406 679 340 564 b 136 704 176 564 136 614 z "},"¹":{"ha":383,"x_min":0,"x_max":0,"o":"m 185 957 l 106 458 l 240 458 l 338 1076 l 50 1076 l 31 957 z "},"²":{"ha":500,"x_min":0,"x_max":0,"o":"m 488 458 l 507 581 l 307 581 l 433 676 b 553 900 513 738 553 813 b 354 1089 553 1017 476 1089 b 104 858 226 1089 132 1003 l 244 858 b 343 965 256 926 292 965 b 415 888 390 965 415 938 b 338 757 415 839 390 796 l 75 560 l 58 458 z "},"³":{"ha":504,"x_min":0,"x_max":0,"o":"m 451 968 l 468 1076 l 74 1076 l 54 956 l 275 956 l 126 838 l 113 749 l 188 749 b 288 661 247 749 288 713 b 194 569 288 606 250 569 b 113 657 142 569 113 601 l -22 657 b 193 447 -22 528 61 447 b 422 667 331 447 422 535 b 286 838 422 750 369 814 z "},"⁴":{"ha":532,"x_min":0,"x_max":0,"o":"m 450 567 l 469 686 l 396 686 l 457 1076 l 288 1076 l -29 689 l -49 567 l 247 567 l 231 458 l 360 458 l 376 567 z m 118 686 l 303 915 l 267 686 z "},"⁵":{"ha":511,"x_min":0,"x_max":0,"o":"m -22 657 b 193 447 -22 528 61 447 b 440 700 329 447 440 564 b 253 883 440 806 367 883 b 181 869 226 883 203 879 l 215 950 l 443 950 l 463 1076 l 133 1076 l 3 744 l 124 732 b 221 779 149 764 179 779 b 304 690 275 779 304 742 b 194 569 304 619 258 569 b 113 657 142 569 113 601 z "},"⁶":{"ha":543,"x_min":0,"x_max":0,"o":"m 222 919 b 81 647 121 807 81 731 b 297 447 81 533 175 447 b 567 708 453 447 567 557 b 372 890 567 814 486 890 b 356 889 367 890 361 890 l 528 1076 l 365 1076 z m 217 660 b 336 783 217 731 268 783 b 431 689 392 783 431 744 b 313 565 431 618 379 565 b 217 660 257 565 217 604 z "},"⁷":{"ha":476,"x_min":0,"x_max":0,"o":"m 547 956 l 567 1076 l 140 1076 l 121 956 l 404 956 l 142 458 l 288 458 z "},"⁸":{"ha":547,"x_min":0,"x_max":0,"o":"m -18 625 b 214 447 -18 521 78 447 b 461 646 363 447 461 526 b 372 779 461 710 426 763 b 478 922 439 800 478 853 b 276 1089 478 1021 394 1089 b 58 901 147 1089 58 1013 b 117 794 58 854 79 815 b -18 625 35 774 -18 708 z m 171 901 b 268 975 171 947 208 975 b 357 907 321 975 357 947 b 260 833 357 861 319 833 b 171 901 207 833 171 861 z m 119 642 b 226 725 119 692 161 725 b 328 651 289 725 328 696 b 222 568 328 599 289 568 b 119 642 160 568 119 597 z "},"⁹":{"ha":544,"x_min":0,"x_max":0,"o":"m 454 615 b 596 888 556 728 596 804 b 379 1088 596 1001 501 1088 b 110 826 224 1088 110 978 b 304 644 110 721 190 644 b 321 646 310 644 315 644 l 149 458 l 311 458 z m 460 875 b 340 751 460 804 408 751 b 246 846 285 751 246 790 b 364 969 246 917 297 969 b 460 875 419 969 460 931 z "},"⁄":{"ha":244,"x_min":0,"x_max":0,"o":"m 631 986 l 469 986 l -340 0 l -179 0 z "},"½":{"ha":1072,"x_min":0,"x_max":0,"o":"m 228 929 l 163 511 l 276 511 l 357 1028 l 126 1028 l 111 929 z m 1010 986 l 849 986 l 39 0 l 200 0 z m 986 0 l 1003 104 l 822 104 l 907 174 b 1028 363 994 244 1028 296 b 857 526 1028 460 958 526 b 653 347 742 526 671 465 l 768 347 b 849 422 775 396 804 422 b 908 360 885 422 908 397 b 831 249 908 324 890 297 l 629 86 l 615 0 z "},"¼":{"ha":1022,"x_min":0,"x_max":0,"o":"m 228 929 l 163 511 l 276 511 l 357 1028 l 126 1028 l 111 929 z m 1010 986 l 849 986 l 39 0 l 200 0 z m 775 94 l 760 0 l 869 0 l 885 94 l 951 94 l 968 197 l 901 197 l 951 517 l 797 517 l 546 186 l 532 94 z m 683 197 l 821 382 l 792 197 z "},"¾":{"ha":1071,"x_min":0,"x_max":0,"o":"m 78 682 b 258 501 78 574 150 501 b 447 681 372 501 447 574 b 342 828 447 750 404 806 l 472 933 l 486 1028 l 156 1028 l 139 924 l 322 924 l 199 825 l 188 750 l 240 750 b 331 672 296 750 331 721 b 264 606 331 632 304 606 b 193 682 219 606 193 635 z m 1058 986 l 897 986 l 88 0 l 249 0 z m 824 94 l 808 0 l 918 0 l 933 94 l 1000 94 l 1017 197 l 950 197 l 1000 517 l 846 517 l 594 186 l 581 94 z m 732 197 l 869 382 l 840 197 z "},"⅛":{"ha":1090,"x_min":0,"x_max":0,"o":"m 228 929 l 163 511 l 276 511 l 357 1028 l 126 1028 l 111 929 z m 1010 986 l 849 986 l 39 0 l 200 0 z m 631 143 b 811 -8 631 61 713 -8 b 1021 158 935 -8 1021 60 b 949 268 1021 210 994 250 b 1032 389 1000 285 1032 331 b 875 526 1032 474 971 526 b 693 372 771 526 693 461 b 740 279 693 331 711 296 b 631 143 675 264 631 211 z m 792 369 b 868 429 792 404 824 429 b 932 374 907 429 932 408 b 858 315 932 340 900 315 b 792 369 818 315 792 336 z m 744 156 b 832 225 744 196 781 225 b 907 160 878 225 907 200 b 822 92 907 122 869 92 b 744 156 775 92 744 117 z "},"⅜":{"ha":1139,"x_min":0,"x_max":0,"o":"m 78 682 b 258 501 78 574 150 501 b 447 681 372 501 447 574 b 342 828 447 750 404 806 l 472 933 l 486 1028 l 156 1028 l 139 924 l 322 924 l 199 825 l 188 750 l 240 750 b 331 672 296 750 331 721 b 264 606 331 632 304 606 b 193 682 219 606 193 635 z m 1058 986 l 897 986 l 88 0 l 249 0 z m 679 143 b 860 -8 679 61 761 -8 b 1069 158 983 -8 1069 60 b 997 268 1069 210 1043 250 b 1081 389 1049 285 1081 331 b 924 526 1081 474 1019 526 b 742 372 819 526 742 461 b 789 279 742 331 760 296 b 679 143 724 264 679 211 z m 840 369 b 917 429 840 404 872 429 b 981 374 956 429 981 408 b 907 315 981 340 949 315 b 840 369 867 315 840 336 z m 793 156 b 881 225 793 196 829 225 b 956 160 926 225 956 200 b 871 92 956 122 918 92 b 793 156 824 92 793 117 z "},"⅝":{"ha":1175,"x_min":0,"x_max":0,"o":"m 275 501 b 482 711 393 501 482 590 b 332 871 482 813 426 871 b 260 854 304 871 281 865 l 289 924 l 492 924 l 508 1028 l 222 1028 l 113 749 l 218 735 b 294 776 235 763 261 776 b 364 704 338 776 364 749 b 278 606 364 646 328 606 b 204 682 233 606 204 635 l 89 682 b 275 501 89 572 163 501 z m 1094 986 l 933 986 l 124 0 l 285 0 z m 715 143 b 896 -8 715 61 797 -8 b 1106 158 1019 -8 1106 60 b 1033 268 1106 210 1079 250 b 1117 389 1085 285 1117 331 b 960 526 1117 474 1056 526 b 778 372 856 526 778 461 b 825 279 778 331 796 296 b 715 143 760 264 715 211 z m 876 369 b 953 429 876 404 908 429 b 1017 374 992 429 1017 408 b 943 315 1017 340 985 315 b 876 369 903 315 876 336 z m 829 156 b 917 225 829 196 865 225 b 992 160 963 225 992 200 b 907 92 992 122 954 92 b 829 156 860 92 829 117 z "},"⅞":{"ha":1069,"x_min":0,"x_max":0,"o":"m 363 924 l 133 511 l 260 511 l 485 924 l 501 1028 l 126 1028 l 110 924 z m 989 986 l 828 986 l 18 0 l 179 0 z m 610 143 b 790 -8 610 61 692 -8 b 1000 158 914 -8 1000 60 b 928 268 1000 210 974 250 b 1011 389 979 285 1011 331 b 854 526 1011 474 950 526 b 672 372 750 526 672 461 b 719 279 672 331 690 296 b 610 143 654 264 610 211 z m 771 369 b 847 429 771 404 803 429 b 911 374 886 429 911 408 b 838 315 911 340 879 315 b 771 369 797 315 771 336 z m 724 156 b 811 225 724 196 760 225 b 886 160 857 225 886 200 b 801 92 886 122 849 92 b 724 156 754 92 724 117 z "},"*":{"ha":589,"x_min":0,"x_max":0,"o":"m 194 789 b 296 761 228 776 265 764 b 207 681 267 740 238 717 l 136 594 l 218 536 l 289 617 b 354 715 318 650 340 686 b 392 619 360 689 371 658 l 436 536 l 524 594 l 481 678 b 421 761 463 714 453 731 b 532 783 451 764 488 768 l 633 818 l 611 915 l 514 885 b 410 835 465 869 440 853 b 438 944 425 878 431 900 l 454 1047 l 351 1047 l 335 944 b 331 835 328 904 326 871 b 243 881 319 843 286 865 l 156 913 l 106 824 z "},"⁂":{"ha":1314,"x_min":0,"x_max":0,"o":"m 557 789 b 658 761 590 776 628 764 b 569 681 629 740 600 717 l 499 594 l 581 536 l 651 617 b 717 715 681 650 703 686 b 754 619 722 689 733 658 l 799 536 l 886 594 l 843 678 b 783 761 825 714 815 731 b 894 783 814 764 850 768 l 996 818 l 974 915 l 876 885 b 772 835 828 869 803 853 b 800 944 788 878 793 900 l 817 1047 l 714 1047 l 697 944 b 693 835 690 904 689 871 b 606 881 682 843 649 865 l 518 913 l 468 824 z m 104 238 b 206 210 138 225 175 213 b 117 129 176 189 147 165 l 46 43 l 128 -15 l 199 65 b 264 164 228 99 250 135 b 301 68 269 138 281 107 l 346 -15 l 433 43 l 390 126 b 331 210 372 163 363 179 b 442 232 361 213 397 217 l 543 267 l 521 364 l 424 333 b 319 283 375 318 350 301 b 347 393 335 326 340 349 l 364 496 l 261 496 l 244 393 b 240 283 238 353 236 319 b 153 329 229 292 196 314 l 65 361 l 15 272 z m 835 236 b 936 208 868 224 906 211 b 847 128 907 188 878 164 l 776 42 l 858 -17 l 929 64 b 994 163 958 97 981 133 b 1032 67 1000 136 1011 106 l 1076 -17 l 1164 42 l 1121 125 b 1061 208 1103 161 1093 178 b 1172 231 1092 211 1128 215 l 1274 265 l 1251 363 l 1154 332 b 1050 282 1106 317 1081 300 b 1078 392 1065 325 1071 347 l 1094 494 l 992 494 l 975 392 b 971 282 968 351 967 318 b 883 328 960 290 926 313 l 796 360 l 746 271 z "},"\\":{"ha":599,"x_min":0,"x_max":0,"o":"m 308 1028 l 108 1028 l 343 0 l 543 0 z "},"·":{"ha":503,"x_min":0,"x_max":0,"o":"m 235 240 b 426 429 340 240 426 326 b 286 567 426 513 371 567 b 94 378 181 567 94 481 b 235 240 94 294 150 240 z "},"•":{"ha":639,"x_min":0,"x_max":0,"o":"m 290 147 b 558 414 435 147 558 271 b 364 614 558 533 481 614 b 90 343 217 614 90 488 b 290 147 90 225 171 147 z "},":":{"ha":447,"x_min":0,"x_max":0,"o":"m 243 471 b 389 613 321 471 389 536 b 282 718 389 676 347 718 b 138 575 203 718 138 653 b 243 471 138 511 178 471 z m 165 -18 b 311 124 243 -18 311 47 b 204 229 311 188 269 229 b 60 86 125 229 60 164 b 165 -18 60 22 100 -18 z "},",":{"ha":422,"x_min":0,"x_max":0,"o":"m 294 104 b 185 229 294 178 253 229 b 47 88 110 229 47 164 b 144 -4 47 36 86 -4 b 183 4 158 -4 172 -1 b 47 -101 172 -51 115 -89 l 35 -176 b 294 104 176 -161 294 -33 z "},"…":{"ha":1169,"x_min":0,"x_max":0,"o":"m 151 -18 b 297 124 229 -18 297 47 b 190 229 297 188 256 229 b 46 86 111 229 46 164 b 151 -18 46 22 86 -18 z m 526 -18 b 672 124 604 -18 672 47 b 565 229 672 188 631 229 b 421 86 486 229 421 164 b 526 -18 421 22 461 -18 z m 901 -18 b 1047 124 979 -18 1047 47 b 940 229 1047 188 1006 229 b 796 86 861 229 796 164 b 901 -18 796 22 836 -18 z "},"!":{"ha":478,"x_min":0,"x_max":0,"o":"m 315 307 b 435 794 358 419 407 618 l 471 1028 l 222 1028 l 186 794 b 146 307 158 618 142 421 z m 179 -18 b 325 124 257 -18 325 47 b 218 229 325 188 283 229 b 74 86 139 229 74 164 b 179 -18 74 22 114 -18 z "},"¡":{"ha":478,"x_min":0,"x_max":0,"o":"m 351 1046 b 206 904 274 1046 206 981 b 313 799 206 840 247 799 b 457 942 392 799 457 864 b 351 1046 457 1006 417 1046 z m 215 721 b 96 233 172 608 124 410 l 60 0 l 308 0 l 344 233 b 385 721 372 410 389 607 z "},"#":{"ha":1015,"x_min":0,"x_max":0,"o":"m 107 442 l 36 247 l 160 247 l 74 0 l 279 0 l 365 247 l 503 247 l 417 0 l 622 0 l 708 247 l 864 247 l 933 442 l 776 442 l 825 583 l 960 583 l 1032 778 l 893 778 l 981 1028 l 775 1028 l 688 778 l 551 778 l 639 1028 l 433 1028 l 346 778 l 210 778 l 138 583 l 278 583 l 228 442 z m 433 442 l 483 583 l 619 583 l 571 442 z "},".":{"ha":419,"x_min":0,"x_max":0,"o":"m 151 -18 b 297 124 229 -18 297 47 b 190 229 297 188 256 229 b 46 86 111 229 46 164 b 151 -18 46 22 86 -18 z "},"?":{"ha":789,"x_min":0,"x_max":0,"o":"m 440 276 l 444 306 b 606 474 453 361 489 408 b 808 764 736 547 808 642 b 492 1047 808 932 679 1047 b 97 690 278 1047 126 911 l 313 690 b 469 853 322 792 381 853 b 582 753 539 853 582 815 b 446 579 582 690 551 651 b 258 306 339 507 274 411 l 254 276 z m 306 -18 b 451 124 379 -18 451 51 b 344 229 451 183 404 229 b 200 86 271 229 200 160 b 306 -18 200 28 246 -18 z "},"¿":{"ha":789,"x_min":0,"x_max":0,"o":"m 536 1047 b 390 906 463 1047 390 978 b 497 800 390 846 438 800 b 642 943 571 800 642 869 b 536 1047 642 1001 596 1047 z m 401 753 l 397 724 b 236 556 389 668 353 621 b 33 265 106 482 33 388 b 350 -18 33 97 163 -18 b 744 339 564 -18 715 118 l 529 339 b 372 176 519 238 461 176 b 260 276 303 176 260 214 b 396 450 260 339 290 378 b 583 724 503 522 568 618 l 588 753 z "},"\"":{"ha":693,"x_min":0,"x_max":0,"o":"m 383 906 b 299 1038 407 981 371 1038 b 182 906 225 1038 182 989 l 182 592 l 285 592 z m 689 906 b 604 1038 713 981 676 1038 b 488 906 531 1038 488 989 l 488 592 l 590 592 z "},"'":{"ha":388,"x_min":0,"x_max":0,"o":"m 383 906 b 299 1038 407 981 371 1038 b 182 906 225 1038 182 989 l 182 592 l 285 592 z "},";":{"ha":447,"x_min":0,"x_max":0,"o":"m 243 471 b 389 613 321 471 389 536 b 282 718 389 676 347 718 b 138 575 203 718 138 653 b 243 471 138 511 178 471 z m 303 104 b 193 229 303 178 261 229 b 56 88 118 229 56 164 b 153 -4 56 36 94 -4 b 192 4 167 -4 181 -1 b 56 -101 181 -51 124 -89 l 43 -176 b 303 104 185 -161 303 -33 z "},"/":{"ha":599,"x_min":0,"x_max":0,"o":"m 164 0 l 707 1028 l 486 1028 l -56 0 z "},"_":{"ha":765,"x_min":0,"x_max":0,"o":"m 1 -171 l 600 -171 l 624 -22 l 25 -22 z "},"{":{"ha":521,"x_min":0,"x_max":0,"o":"m 78 443 b 206 303 175 443 219 393 l 163 29 b 331 -158 146 -78 218 -158 l 433 -158 l 458 0 l 401 0 b 357 68 367 0 350 25 l 397 331 b 306 510 411 421 379 485 b 458 717 397 546 440 606 l 500 982 b 565 1050 508 1032 525 1050 l 622 1050 l 647 1208 l 544 1208 b 318 1022 415 1208 338 1144 l 275 744 b 104 606 261 654 200 606 z "},"}":{"ha":519,"x_min":0,"x_max":0,"o":"m 32 -158 b 258 28 161 -158 239 -94 l 301 306 b 472 444 315 396 376 444 l 499 607 b 371 747 401 607 357 657 l 414 1021 b 246 1208 431 1128 358 1208 l 143 1208 l 118 1050 l 175 1050 b 219 982 210 1050 226 1025 l 179 719 b 271 540 165 629 197 565 b 118 333 179 504 136 444 l 76 68 b 11 0 68 18 51 0 l -46 0 l -71 -158 z "},"[":{"ha":460,"x_min":0,"x_max":0,"o":"m 240 0 l 406 1050 l 563 1050 l 588 1208 l 243 1208 l 28 -158 l 372 -158 l 397 0 z "},"]":{"ha":460,"x_min":0,"x_max":0,"o":"m -72 -158 l 272 -158 l 488 1208 l 143 1208 l 118 1050 l 275 1050 l 110 0 l -47 0 z "},"(":{"ha":461,"x_min":0,"x_max":0,"o":"m 360 -294 b 254 215 296 -181 254 18 b 579 1100 254 522 386 882 l 410 1100 b 49 218 190 900 49 553 b 201 -294 49 15 104 -171 z "},")":{"ha":463,"x_min":0,"x_max":0,"o":"m 69 -294 b 431 588 289 -94 431 253 b 278 1100 431 790 375 976 l 119 1100 b 225 590 183 986 225 788 b -100 -294 225 283 93 -76 z "},"—":{"ha":1710,"x_min":0,"x_max":0,"o":"m 86 281 l 1601 281 l 1631 464 l 115 464 z "},"–":{"ha":1374,"x_min":0,"x_max":0,"o":"m 86 281 l 1265 281 l 1294 464 l 115 464 z "},"-":{"ha":631,"x_min":0,"x_max":0,"o":"m 74 283 l 538 283 l 567 467 l 103 467 z "},"«":{"ha":1107,"x_min":0,"x_max":0,"o":"m 297 0 l 553 0 l 322 332 l 690 694 l 407 694 l 56 349 z m 714 0 l 969 0 l 739 332 l 1107 694 l 824 694 l 472 349 z "},"»":{"ha":1107,"x_min":0,"x_max":0,"o":"m 393 694 l 138 694 l 368 363 l 0 0 l 283 0 l 635 346 z m 810 694 l 554 694 l 785 363 l 417 0 l 700 0 l 1051 346 z "},"‹":{"ha":690,"x_min":0,"x_max":0,"o":"m 297 0 l 553 0 l 322 332 l 690 694 l 407 694 l 56 349 z "},"›":{"ha":690,"x_min":0,"x_max":0,"o":"m 393 694 l 138 694 l 368 363 l 0 0 l 283 0 l 635 346 z "},"„":{"ha":721,"x_min":0,"x_max":0,"o":"m 282 92 b 181 207 282 161 244 207 b 47 69 107 207 47 146 b 132 -17 47 15 83 -17 b 171 -10 147 -17 158 -15 b 44 -115 163 -64 113 -101 l 32 -190 b 282 92 169 -175 282 -49 z m 588 92 b 486 207 588 161 550 207 b 353 69 413 207 353 146 b 438 -17 353 15 389 -17 b 476 -10 453 -17 464 -15 b 350 -115 468 -64 418 -101 l 338 -190 b 588 92 475 -175 588 -49 z "},"“":{"ha":719,"x_min":0,"x_max":0,"o":"m 393 789 b 308 875 393 842 360 875 b 269 867 296 875 282 872 b 397 972 278 921 328 958 l 408 1047 b 158 765 271 1032 158 907 b 261 650 158 697 196 650 b 393 789 335 650 393 713 z m 699 789 b 614 875 699 842 665 875 b 575 867 601 875 588 872 b 703 972 583 921 633 958 l 714 1047 b 464 765 576 1032 464 907 b 567 650 464 697 501 650 b 699 789 640 650 699 713 z "},"”":{"ha":719,"x_min":0,"x_max":0,"o":"m 414 932 b 313 1047 414 1001 376 1047 b 179 908 239 1047 179 986 b 264 822 179 856 213 822 b 303 831 279 822 292 825 b 176 725 290 774 242 739 l 164 650 b 414 932 303 665 414 792 z m 719 932 b 618 1047 719 1001 682 1047 b 485 908 544 1047 485 986 b 569 822 485 856 518 822 b 608 831 585 822 597 825 b 482 725 596 774 547 739 l 469 650 b 719 932 608 665 719 792 z "},"‘":{"ha":414,"x_min":0,"x_max":0,"o":"m 393 789 b 308 875 393 842 360 875 b 269 867 296 875 282 872 b 397 972 278 921 328 958 l 408 1047 b 158 765 271 1032 158 907 b 261 650 158 697 196 650 b 393 789 335 650 393 713 z "},"’":{"ha":414,"x_min":0,"x_max":0,"o":"m 414 932 b 313 1047 414 1001 376 1047 b 179 908 239 1047 179 986 b 264 822 179 856 213 822 b 303 831 279 822 292 825 b 176 725 290 774 242 739 l 164 650 b 414 932 303 665 414 792 z "},"‚":{"ha":415,"x_min":0,"x_max":0,"o":"m 282 92 b 181 207 282 161 244 207 b 47 69 107 207 47 146 b 132 -17 47 15 83 -17 b 171 -10 147 -17 158 -15 b 44 -115 163 -64 113 -101 l 32 -190 b 282 92 169 -175 282 -49 z "}," ":{"ha":361,"x_min":0,"x_max":0,"o":""},"¢":{"ha":803,"x_min":0,"x_max":0,"o":"m 260 0 l 432 0 l 456 150 b 768 440 610 171 731 281 l 557 440 b 415 331 532 371 479 331 b 290 474 335 331 290 382 b 463 694 290 600 364 694 b 583 586 536 694 579 656 l 792 586 b 569 868 792 738 710 839 l 594 1028 l 422 1028 l 397 871 b 79 458 213 835 79 669 b 286 163 79 303 153 199 z "},"¤":{"ha":1047,"x_min":0,"x_max":0,"o":"m 813 74 l 961 192 l 857 321 b 933 553 906 389 933 468 b 899 706 933 607 921 660 l 1026 818 l 901 958 l 772 846 b 589 896 721 878 658 896 b 383 839 515 896 444 875 l 288 958 l 139 840 l 242 711 b 163 472 192 643 163 560 b 196 322 163 418 175 368 l 74 214 l 199 74 l 322 182 b 507 132 375 150 438 132 b 718 192 582 132 654 154 z m 742 536 b 522 318 742 419 653 318 b 354 490 413 318 354 399 b 574 710 354 610 442 710 b 742 536 682 710 742 629 z "},"$":{"ha":828,"x_min":0,"x_max":0,"o":"m 294 -129 l 418 -129 l 433 -17 b 785 314 647 -6 785 124 b 561 579 785 449 713 535 l 513 593 l 544 836 b 617 731 585 815 611 779 l 835 731 b 571 1036 829 881 721 1001 l 586 1157 l 463 1157 l 449 1046 b 97 704 235 1036 97 904 b 332 431 97 572 182 474 l 367 421 l 336 188 b 244 299 281 204 247 244 l 26 299 b 310 -11 32 131 139 18 z m 313 736 b 422 850 313 799 351 839 l 393 629 b 313 736 338 651 313 685 z m 571 292 b 458 181 571 232 529 192 l 486 386 b 571 292 547 368 571 343 z "},"€":{"ha":813,"x_min":0,"x_max":0,"o":"m 536 -17 b 708 1 589 -17 642 -11 l 742 213 b 581 188 683 196 631 188 b 343 315 460 188 378 222 l 640 315 l 664 467 l 324 467 b 333 550 325 496 328 524 l 678 550 l 701 703 l 393 703 b 704 843 457 796 563 843 b 825 825 735 843 786 836 l 857 1029 b 724 1047 824 1039 775 1047 b 163 703 465 1047 257 914 l 74 703 l 50 550 l 117 550 b 108 467 113 524 108 496 l 36 467 l 13 315 l 118 315 b 536 -17 160 113 313 -17 z "},"ƒ":{"ha":907,"x_min":0,"x_max":0,"o":"m 136 568 l 106 374 l 333 374 l 228 -11 b 114 -100 211 -71 167 -100 l 1 -100 l -31 -299 l 78 -299 b 440 -44 304 -299 399 -194 l 556 374 l 826 374 l 857 568 l 608 568 l 656 740 b 769 847 679 825 726 847 l 914 847 l 946 1046 l 813 1046 b 438 751 628 1046 488 935 l 388 568 z "},"£":{"ha":919,"x_min":0,"x_max":0,"o":"m 492 0 b 869 351 715 0 831 107 l 650 351 b 475 204 622 238 583 204 l 269 204 b 392 418 349 239 392 314 b 392 436 392 424 392 431 l 632 436 l 657 594 l 372 594 b 364 708 368 631 364 669 b 517 853 364 797 422 853 b 668 714 603 853 660 801 l 886 714 b 528 1047 879 906 728 1047 b 149 690 303 1047 149 903 b 157 594 149 661 153 629 l 79 594 l 54 436 l 181 436 b 182 400 181 424 182 411 b 11 204 182 286 110 204 l -21 0 z "},"¥":{"ha":944,"x_min":0,"x_max":0,"o":"m 340 167 l 314 0 l 519 0 l 546 167 l 763 167 l 786 318 l 569 318 l 581 386 l 797 386 l 821 539 l 667 539 l 1025 1028 l 768 1028 l 508 625 l 372 1028 l 136 1028 l 339 539 l 182 539 l 158 386 l 375 386 l 364 318 l 147 318 l 124 167 z "},"+":{"ha":917,"x_min":0,"x_max":0,"o":"m 151 551 l 124 385 l 378 385 l 336 119 l 508 119 l 550 385 l 803 385 l 831 551 l 576 551 l 618 815 l 446 815 l 404 551 z "},"−":{"ha":917,"x_min":0,"x_max":0,"o":"m 151 551 l 124 385 l 803 385 l 831 551 z "},"×":{"ha":917,"x_min":0,"x_max":0,"o":"m 322 804 l 190 699 l 363 478 l 111 253 l 224 131 l 465 346 l 632 132 l 764 238 l 592 458 l 842 682 l 729 804 l 489 590 z "},"÷":{"ha":917,"x_min":0,"x_max":0,"o":"m 496 574 b 626 701 561 574 626 638 b 531 797 626 754 585 797 b 399 668 463 797 399 735 b 496 574 399 617 439 574 z m 144 507 l 117 340 l 796 340 l 824 507 z m 413 51 b 543 179 478 51 543 115 b 449 275 543 232 501 275 b 315 147 381 275 315 213 b 413 51 315 94 357 51 z "},"=":{"ha":917,"x_min":0,"x_max":0,"o":"m 168 661 l 142 494 l 819 494 l 846 661 z m 121 350 l 93 183 l 771 183 l 799 350 z "},"≠":{"ha":917,"x_min":0,"x_max":0,"o":"m 100 26 l 293 26 l 401 183 l 771 183 l 799 350 l 517 350 l 617 494 l 819 494 l 846 661 l 732 661 l 842 819 l 649 819 l 539 661 l 168 661 l 142 494 l 424 494 l 324 350 l 121 350 l 93 183 l 208 183 z "},">":{"ha":917,"x_min":0,"x_max":0,"o":"m 782 239 l 817 460 l 175 703 l 143 508 l 601 358 l 96 208 l 64 -3 z "},"<":{"ha":917,"x_min":0,"x_max":0,"o":"m 774 192 l 317 342 l 821 492 l 853 703 l 136 461 l 101 240 l 742 -3 z "},"≥":{"ha":917,"x_min":0,"x_max":0,"o":"m 808 408 l 843 629 l 203 872 l 171 678 l 628 528 l 124 378 l 92 167 z m 92 167 l 64 0 l 742 0 l 769 167 z "},"≤":{"ha":917,"x_min":0,"x_max":0,"o":"m 801 361 l 343 511 l 849 661 l 881 872 l 163 631 l 128 410 l 769 167 z m 63 0 l 742 0 l 769 167 l 90 167 z "},"±":{"ha":917,"x_min":0,"x_max":0,"o":"m 167 646 l 139 479 l 392 479 l 358 269 l 531 269 l 564 479 l 815 479 l 843 646 l 590 646 l 624 856 l 451 856 l 418 646 z m 64 0 l 742 0 l 769 167 l 92 167 z "},"≈":{"ha":917,"x_min":0,"x_max":0,"o":"m 678 701 b 601 613 668 642 643 613 b 339 707 511 613 465 707 b 114 458 219 707 140 619 l 269 458 b 346 542 279 514 304 542 b 607 447 432 542 479 447 b 833 701 726 447 806 536 z m 678 410 b 601 321 668 350 643 321 b 339 415 511 321 465 415 b 114 167 219 415 140 328 l 269 167 b 346 250 279 222 304 250 b 607 156 432 250 479 156 b 833 410 726 156 806 244 z "},"~":{"ha":917,"x_min":0,"x_max":0,"o":"m 678 563 b 601 474 668 503 643 474 b 339 568 511 474 465 568 b 114 319 219 568 140 481 l 269 319 b 346 403 279 375 304 403 b 607 308 432 403 479 308 b 833 563 726 308 806 397 z "},"¬":{"ha":917,"x_min":0,"x_max":0,"o":"m 828 554 l 115 554 l 88 388 l 613 388 l 572 131 l 761 131 z "},"∅":{"ha":1186,"x_min":0,"x_max":0,"o":"m 568 -17 b 1132 593 882 -17 1132 249 b 1083 807 1132 672 1115 744 l 1221 919 l 1131 1022 l 1003 918 b 669 1044 921 999 804 1044 b 107 433 356 1044 107 778 b 153 224 107 356 124 285 l 18 114 l 110 11 l 233 113 b 568 -17 315 31 432 -17 z m 339 457 b 650 833 339 669 479 833 b 824 772 721 833 781 811 l 347 382 b 339 457 342 406 339 431 z m 589 196 b 414 260 518 196 457 218 l 892 650 b 900 571 897 626 900 600 b 589 196 900 360 760 196 z "},"∞":{"ha":1258,"x_min":0,"x_max":0,"o":"m 61 364 b 342 104 61 221 188 104 b 629 261 453 104 525 143 b 894 104 692 153 774 104 b 1214 444 1082 104 1214 246 b 947 704 1214 592 1099 704 b 646 546 818 704 711 649 b 394 704 597 654 518 704 b 61 364 204 704 61 558 z m 249 392 b 381 525 249 469 304 525 b 518 403 454 525 506 481 b 356 282 476 319 425 282 b 249 392 292 282 249 326 z m 757 404 b 919 525 799 488 850 525 b 1026 415 983 525 1026 481 b 894 282 1026 338 971 282 b 757 404 821 282 769 326 z "},"∫":{"ha":661,"x_min":0,"x_max":0,"o":"m 104 -17 b 425 275 289 -17 393 79 l 501 753 b 597 858 513 825 543 858 l 700 858 l 731 1047 l 613 1047 b 292 753 428 1047 324 950 l 215 275 b 118 172 204 206 174 172 l 15 172 l -15 -17 z "},"∆":{"ha":985,"x_min":0,"x_max":0,"o":"m 860 0 l 889 183 l 694 1028 l 503 1028 l 43 183 l 14 0 z m 528 671 b 558 733 538 689 547 708 b 571 671 561 711 564 699 l 683 183 l 269 183 z "},"∏":{"ha":989,"x_min":0,"x_max":0,"o":"m 269 0 l 400 825 l 740 825 l 610 0 l 826 0 l 989 1028 l 215 1028 l 53 0 z "},"∑":{"ha":815,"x_min":0,"x_max":0,"o":"m 690 0 l 722 203 l 304 203 l 639 521 l 381 825 l 821 825 l 853 1028 l 178 1028 l 143 810 l 385 531 l 50 219 l 15 0 z "},"√":{"ha":1025,"x_min":0,"x_max":0,"o":"m 211 0 l 413 0 l 867 840 l 1075 840 l 1104 1028 l 743 1028 l 346 269 l 258 694 l 54 694 z "},"µ":{"ha":817,"x_min":0,"x_max":0,"o":"m 174 -332 l 203 11 b 301 -18 228 -11 271 -18 b 485 75 385 -18 426 10 l 488 0 l 682 0 l 792 694 l 585 694 l 525 315 b 376 168 510 218 457 168 b 275 321 303 168 260 228 l 335 694 l 128 694 l -35 -332 z "},"∂":{"ha":889,"x_min":0,"x_max":0,"o":"m 60 321 b 422 -15 60 114 199 -15 b 847 511 672 -15 847 201 b 656 1047 847 715 800 847 l 415 1047 b 622 701 497 936 572 808 b 463 740 581 726 525 740 b 60 321 235 740 60 557 z m 278 332 b 464 553 278 451 363 553 b 614 406 563 553 614 501 b 419 172 614 279 525 172 b 278 332 332 172 278 233 z "},"%":{"ha":1351,"x_min":0,"x_max":0,"o":"m 656 797 b 397 1047 656 956 560 1047 b 104 753 238 1047 104 913 b 361 503 104 594 199 503 b 656 797 521 503 656 638 z m 1267 1028 l 1050 1028 l 136 0 l 353 0 z m 492 789 b 367 653 492 714 436 653 b 268 760 301 653 268 689 b 392 897 268 838 322 897 b 492 789 457 897 492 860 z m 1300 276 b 1042 526 1300 435 1204 526 b 749 232 882 526 749 392 b 1006 -18 749 74 843 -18 b 1300 276 1165 -18 1300 117 z m 1136 268 b 1011 132 1136 193 1081 132 b 913 239 946 132 913 168 b 1036 376 913 317 967 376 b 1136 268 1101 376 1136 339 z "},"‰":{"ha":1954,"x_min":0,"x_max":0,"o":"m 656 797 b 397 1047 656 956 560 1047 b 104 753 238 1047 104 913 b 361 503 104 594 199 503 b 656 797 521 503 656 638 z m 1267 1028 l 1050 1028 l 136 0 l 353 0 z m 492 789 b 367 653 492 714 436 653 b 268 760 301 653 268 689 b 392 897 268 838 322 897 b 492 789 457 897 492 860 z m 1300 276 b 1042 526 1300 435 1204 526 b 749 232 882 526 749 392 b 1006 -18 749 74 843 -18 b 1300 276 1165 -18 1300 117 z m 1903 276 b 1644 526 1903 435 1807 526 b 1351 232 1485 526 1351 392 b 1608 -18 1351 74 1446 -18 b 1903 276 1768 -18 1903 117 z m 1136 268 b 1011 132 1136 193 1081 132 b 913 239 946 132 913 168 b 1036 376 913 317 967 376 b 1136 268 1101 376 1136 339 z m 1739 268 b 1614 132 1739 193 1683 132 b 1515 239 1549 132 1515 168 b 1639 376 1515 317 1569 376 b 1739 268 1704 376 1739 339 z "},"↑":{"ha":1217,"x_min":0,"x_max":0,"o":"m 249 571 l 582 904 l 582 0 l 740 0 l 740 904 l 1074 571 l 1186 683 l 661 1208 l 136 683 z "},"↗":{"ha":1168,"x_min":0,"x_max":0,"o":"m 332 869 l 803 869 l 46 111 l 158 0 l 915 757 l 915 286 l 1075 286 l 1075 1028 l 332 1028 z "},"→":{"ha":1417,"x_min":0,"x_max":0,"o":"m 708 843 l 1042 510 l 108 508 l 108 351 l 1042 351 l 708 18 l 821 -94 l 1346 429 l 821 954 z "},"↘":{"ha":1339,"x_min":0,"x_max":0,"o":"m 1042 744 l 1042 272 l 285 1028 l 174 917 l 929 161 l 458 161 l 458 1 l 1200 0 l 1200 743 z "},"↓":{"ha":1215,"x_min":0,"x_max":0,"o":"m 1024 467 l 689 132 l 689 1065 l 531 1065 l 531 133 l 199 467 l 85 353 l 608 -172 l 1133 353 z "},"↙":{"ha":1168,"x_min":0,"x_max":0,"o":"m 889 158 l 417 158 l 1175 919 l 1064 1031 l 306 271 l 306 742 l 146 742 l 144 0 l 888 0 z "},"←":{"ha":1418,"x_min":0,"x_max":0,"o":"m 733 8 l 400 340 l 1333 340 l 1333 499 l 400 499 l 733 833 l 621 944 l 94 418 l 621 -106 z "},"↖":{"ha":1306,"x_min":0,"x_max":0,"o":"m 192 1028 l 192 285 l 350 283 l 350 756 l 1074 0 l 1185 111 l 463 867 l 933 867 l 933 1026 z "},"↔":{"ha":1631,"x_min":0,"x_max":0,"o":"m 90 394 l 521 -36 l 521 188 l 385 314 l 1260 314 l 1124 188 l 1124 -36 l 1554 394 l 1124 821 l 1124 596 l 1257 472 l 949 472 l 949 474 l 713 474 l 713 472 l 388 471 l 521 596 l 521 821 z "},"↕":{"ha":1119,"x_min":0,"x_max":0,"o":"m 576 -269 l 1007 161 l 783 161 l 657 25 l 657 900 l 783 764 l 1007 764 l 576 1194 l 150 764 l 375 764 l 499 897 l 499 589 l 497 589 l 497 353 l 499 353 l 500 28 l 375 161 l 150 161 z "},"●":{"ha":1256,"x_min":0,"x_max":0,"o":"m 646 -75 b 1183 463 942 -75 1183 165 b 646 1000 1183 758 940 1000 b 108 463 350 1000 108 760 b 646 -75 108 167 349 -75 z "},"○":{"ha":1256,"x_min":0,"x_max":0,"o":"m 646 -75 b 1183 463 942 -75 1183 165 b 646 1000 1183 758 940 1000 b 108 463 350 1000 108 760 b 646 -75 108 167 349 -75 z m 646 64 b 247 463 426 64 247 243 b 646 861 247 682 426 861 b 1044 463 864 861 1044 681 b 646 64 1044 243 865 64 z "},"◊":{"ha":922,"x_min":0,"x_max":0,"o":"m 863 493 l 586 986 l 383 986 l 107 493 l 383 0 l 586 0 z m 647 493 l 485 189 l 322 493 l 485 797 z "},"■":{"ha":1310,"x_min":0,"x_max":0,"o":"m 185 0 l 1171 0 l 1171 986 l 185 986 z "},"□":{"ha":1310,"x_min":0,"x_max":0,"o":"m 185 0 l 1171 0 l 1171 986 l 185 986 z m 1015 831 l 1015 156 l 340 156 l 340 831 z "},"▲":{"ha":1342,"x_min":0,"x_max":0,"o":"m 28 0 l 1203 0 l 615 986 z "},"△":{"ha":1342,"x_min":0,"x_max":0,"o":"m 618 992 l 29 6 l 1204 6 z m 268 138 l 617 721 l 965 138 z "},"☮":{"ha":1256,"x_min":0,"x_max":0,"o":"m 646 -75 b 1183 463 942 -75 1183 165 b 646 1000 1183 758 940 1000 b 108 463 350 1000 108 760 b 646 -75 108 167 349 -75 z m 247 463 b 583 856 247 661 393 826 l 583 526 l 278 311 b 247 463 258 358 247 410 z m 1044 463 b 1014 311 1044 410 1033 358 l 708 526 l 708 856 b 1044 463 897 825 1044 660 z m 343 204 l 583 374 l 583 69 b 343 204 488 83 403 133 z m 708 374 l 949 204 b 708 69 889 133 804 83 z "},"✓":{"ha":900,"x_min":0,"x_max":0,"o":"m 356 10 l 893 656 l 761 769 l 350 274 l 174 461 l 54 335 z "},"@":{"ha":1319,"x_min":0,"x_max":0,"o":"m 356 296 b 574 115 356 190 446 115 b 790 229 674 115 756 158 b 968 115 803 160 871 115 b 1278 531 1161 115 1278 271 b 764 1047 1278 833 1065 1047 b 75 363 357 1047 75 768 b 585 -169 75 50 286 -169 b 936 -72 711 -169 828 -137 l 899 43 b 604 -44 806 -14 703 -44 b 208 364 367 -44 208 119 b 757 922 208 694 432 922 b 1144 531 994 922 1144 771 b 990 238 1144 376 1071 238 b 943 313 950 238 935 263 l 972 500 b 718 781 999 675 903 781 b 411 547 550 781 435 693 l 567 547 b 692 636 575 606 618 636 b 800 539 764 636 800 604 l 800 529 l 618 514 b 356 296 449 500 356 422 z m 549 314 b 675 394 549 365 581 386 l 775 403 l 769 369 b 626 256 757 299 704 256 b 549 314 576 256 549 276 z "},"&":{"ha":1049,"x_min":0,"x_max":0,"o":"m 735 0 l 958 0 l 828 185 b 961 504 894 268 942 378 l 758 504 b 713 347 749 444 733 392 l 579 533 b 803 831 736 628 803 717 b 558 1044 803 963 708 1044 b 256 764 383 1044 256 926 b 329 574 256 707 275 654 b 50 251 131 494 50 400 b 396 -18 50 93 193 -18 b 690 63 507 -18 607 10 z m 451 779 b 543 881 451 840 489 881 b 610 817 585 881 610 856 b 500 646 610 746 571 685 b 451 779 463 700 451 733 z m 275 288 b 414 453 275 358 321 413 l 590 203 b 438 161 547 175 494 161 b 275 288 332 161 275 206 z "},"¶":{"ha":851,"x_min":0,"x_max":0,"o":"m 97 711 b 322 464 97 575 179 464 l 368 464 l 274 -136 l 449 -136 l 633 1028 l 411 1028 b 97 711 231 1028 97 910 z m 640 -137 l 824 1028 l 761 1028 l 578 -137 z "},"§":{"ha":672,"x_min":0,"x_max":0,"o":"m 667 539 b 522 721 667 632 622 688 l 399 761 b 332 829 353 776 332 797 b 414 894 332 871 361 894 b 493 804 465 894 493 863 l 689 804 b 428 1046 689 943 578 1046 b 139 825 251 1046 139 960 b 232 679 139 761 171 713 b 58 489 125 657 58 588 b 203 306 58 397 106 336 l 326 267 b 393 200 374 251 393 232 b 318 138 393 161 365 138 b 232 232 265 138 232 174 l 36 232 b 301 -14 36 82 139 -14 b 586 203 468 -14 586 76 b 521 335 586 261 565 304 b 667 539 607 369 667 447 z m 469 528 b 356 414 469 461 422 414 b 256 497 293 414 256 446 b 369 613 256 564 303 613 b 469 528 432 613 469 581 z "},"©":{"ha":1121,"x_min":0,"x_max":0,"o":"m 539 -18 b 1100 576 844 -18 1100 253 b 636 1047 1100 854 910 1047 b 75 453 331 1047 75 776 b 539 -18 75 176 267 -18 z m 549 104 b 203 464 342 104 203 249 b 626 925 203 719 392 925 b 974 565 835 925 974 781 b 549 104 974 310 785 104 z m 331 481 b 567 244 331 339 425 244 b 840 461 692 244 813 340 l 688 461 b 575 379 668 407 629 379 b 486 486 521 379 486 421 b 613 647 486 581 539 647 b 697 568 664 647 693 619 l 850 568 b 622 782 844 699 757 782 b 331 481 451 782 331 657 z "},"®":{"ha":717,"x_min":0,"x_max":0,"o":"m 392 433 b 725 778 586 433 725 594 b 450 1047 725 931 628 1047 b 117 703 256 1047 117 886 b 392 433 117 550 214 433 z m 394 489 b 178 703 250 489 178 578 b 447 992 178 854 285 992 b 664 778 592 992 664 903 b 394 489 664 626 557 489 z m 332 572 l 351 694 l 435 694 l 476 572 l 542 572 l 494 706 b 576 819 544 726 576 764 b 461 917 576 883 529 917 l 325 917 l 271 572 z m 511 811 b 439 751 511 774 481 751 l 360 751 l 376 858 l 453 858 b 511 811 489 858 511 843 z "},"℗":{"ha":711,"x_min":0,"x_max":0,"o":"m 389 433 b 722 778 575 433 722 586 b 447 1047 722 942 614 1047 b 114 703 261 1047 114 894 b 389 433 114 539 222 433 z m 392 489 b 175 703 256 489 175 569 b 444 992 175 865 293 992 b 661 778 581 992 661 911 b 392 489 661 615 543 489 z m 343 567 l 358 664 l 435 664 b 583 803 524 664 583 722 b 469 908 583 865 538 908 l 336 908 l 282 567 z m 389 850 l 463 850 b 521 796 500 850 521 831 b 444 722 521 751 492 722 l 368 722 z "},"™":{"ha":897,"x_min":0,"x_max":0,"o":"m 260 957 l 208 629 l 285 629 l 336 957 l 464 957 l 475 1028 l 143 1028 l 132 957 z m 528 629 l 565 872 l 628 629 l 689 629 l 826 872 l 788 629 l 858 629 l 921 1028 l 849 1028 l 668 706 l 589 1028 l 519 1028 l 457 629 z "},"°":{"ha":471,"x_min":0,"x_max":0,"o":"m 510 875 b 332 1047 510 974 435 1047 b 121 828 213 1047 121 950 b 299 656 121 729 196 656 b 510 875 418 656 510 753 z m 397 860 b 310 763 397 806 361 763 b 233 843 264 763 233 794 b 321 940 233 897 269 940 b 397 860 367 940 397 908 z "},"|":{"ha":483,"x_min":0,"x_max":0,"o":"m 88 -125 l 246 -125 l 439 1094 l 281 1094 z "},"¦":{"ha":485,"x_min":0,"x_max":0,"o":"m 440 1094 l 282 1094 l 206 615 l 364 615 z m 89 -125 l 247 -125 l 324 354 l 165 354 z "},"†":{"ha":483,"x_min":0,"x_max":0,"o":"m 190 408 l 313 408 l 369 772 l 522 772 l 540 889 l 388 889 l 410 1028 l 288 1028 l 265 889 l 114 889 l 96 772 l 247 772 z "},"‡":{"ha":482,"x_min":0,"x_max":0,"o":"m 189 408 l 311 408 l 333 549 l 486 549 l 504 665 l 351 665 l 369 771 l 521 771 l 540 888 l 388 888 l 410 1028 l 288 1028 l 265 888 l 114 888 l 94 771 l 247 771 l 229 665 l 78 665 l 60 549 l 211 549 z "},"℮":{"ha":1094,"x_min":0,"x_max":0,"o":"m 114 490 b 586 -12 114 192 303 -12 b 972 208 760 -12 904 72 l 919 228 b 589 43 861 118 732 43 b 253 206 442 43 325 103 l 253 456 l 1028 456 b 1029 529 1029 476 1029 503 b 572 986 1029 815 840 986 b 114 490 306 986 114 783 z m 253 758 b 572 931 321 861 433 931 b 890 783 704 931 821 878 l 890 506 l 253 506 z "},"№":{"ha":1789,"x_min":0,"x_max":0,"o":"m 1786 758 b 1481 1046 1786 921 1654 1046 b 1111 679 1272 1046 1111 886 b 1419 393 1111 519 1247 393 b 1786 758 1631 393 1786 549 z m 268 0 l 372 661 l 694 0 l 910 0 l 1072 1028 l 857 1028 l 753 367 l 431 1028 l 215 1028 l 53 0 z m 1593 738 b 1433 574 1593 643 1525 574 b 1303 703 1360 574 1303 631 b 1465 860 1303 794 1369 860 b 1593 738 1542 860 1593 811 z m 1665 156 l 1693 333 l 1082 333 l 1054 156 z "},"^":{"ha":731,"x_min":0,"x_max":0,"o":"m 300 556 l 456 863 l 514 556 l 681 556 l 574 1028 l 372 1028 l 117 556 z "},"′":{"ha":269,"x_min":0,"x_max":0,"o":"m 308 947 b 240 1047 325 1003 294 1047 b 151 947 188 1047 154 1010 l 140 675 l 232 675 z "},"̈":{"ha":619,"x_min":0,"x_max":0,"o":"m 293 1081 b 415 1203 358 1081 415 1138 b 326 1293 415 1256 379 1293 b 204 1169 260 1293 204 1238 b 293 1081 204 1115 239 1081 z m 560 1081 b 682 1203 626 1081 682 1138 b 593 1293 682 1257 646 1293 b 472 1169 528 1293 472 1238 b 560 1081 472 1115 506 1081 z "},"̇":{"ha":331,"x_min":0,"x_max":0,"o":"m 281 1081 b 410 1210 350 1081 410 1140 b 317 1304 410 1267 372 1304 b 188 1175 247 1304 188 1246 b 281 1081 188 1117 224 1081 z "},"̀":{"ha":422,"x_min":0,"x_max":0,"o":"m 479 1071 l 403 1297 l 225 1297 l 339 1071 z "},"́":{"ha":425,"x_min":0,"x_max":0,"o":"m 508 1297 l 317 1297 l 167 1071 l 322 1071 z "},"̋":{"ha":682,"x_min":0,"x_max":0,"o":"m 499 1297 l 331 1297 l 168 1071 l 314 1071 z m 739 1297 l 571 1297 l 408 1071 l 553 1071 z "},"̂":{"ha":578,"x_min":0,"x_max":0,"o":"m 333 1071 l 433 1215 l 489 1071 l 638 1071 l 542 1311 l 342 1311 l 171 1071 z "},"̌":{"ha":568,"x_min":0,"x_max":0,"o":"m 300 1071 l 500 1071 l 671 1311 l 508 1311 l 408 1167 l 353 1311 l 204 1311 z "},"̆":{"ha":636,"x_min":0,"x_max":0,"o":"m 563 1300 b 463 1193 551 1233 521 1193 b 374 1300 404 1193 374 1232 l 231 1300 b 453 1057 231 1150 307 1057 b 708 1300 611 1057 685 1151 z "},"̊":{"ha":485,"x_min":0,"x_max":0,"o":"m 361 1047 b 576 1261 485 1047 576 1139 b 401 1429 576 1360 503 1429 b 189 1211 281 1429 189 1336 b 361 1047 189 1114 258 1047 z m 372 1153 b 301 1226 329 1153 301 1182 b 392 1324 301 1283 339 1324 b 464 1251 435 1324 464 1294 b 372 1153 464 1194 426 1153 z "},"̃":{"ha":633,"x_min":0,"x_max":0,"o":"m 296 1074 b 360 1160 304 1135 321 1160 b 553 1074 425 1160 450 1074 b 724 1296 654 1074 714 1151 l 603 1296 b 540 1210 596 1238 581 1210 b 346 1296 468 1210 444 1296 b 176 1074 249 1296 182 1208 z "},"̄":{"ha":560,"x_min":0,"x_max":0,"o":"m 204 1108 l 597 1108 l 619 1250 l 226 1250 z "},"̒":{"ha":313,"x_min":0,"x_max":0,"o":"m 392 1206 b 321 1276 392 1247 365 1276 b 283 1268 308 1276 294 1274 b 401 1321 293 1311 335 1329 l 411 1385 b 192 1193 279 1401 192 1313 b 278 1096 192 1138 224 1096 b 392 1206 342 1096 392 1143 z "},"̦":{"ha":314,"x_min":0,"x_max":0,"o":"m 179 -137 b 93 -40 179 -81 146 -40 b -22 -149 28 -40 -22 -87 b 47 -219 -22 -189 4 -219 b 88 -211 64 -219 78 -217 b -31 -264 78 -253 40 -272 l -40 -328 b 179 -137 92 -344 179 -257 z "},"̧":{"ha":378,"x_min":0,"x_max":0,"o":"m -60 -293 b 56 -319 -35 -307 8 -319 b 242 -162 168 -319 242 -258 b 138 -58 242 -92 185 -58 b 93 -65 118 -58 104 -61 l 144 13 l 151 57 l 93 58 l 3 -85 l 14 -137 b 82 -126 33 -131 57 -126 b 135 -171 115 -126 135 -142 b 49 -232 135 -210 100 -232 b -46 -206 15 -232 -15 -221 z "},"̸":{"ha":793,"x_min":0,"x_max":0,"o":"m 804 765 l 628 765 l -10 -61 l 175 -61 z "},"´":{"ha":433,"x_min":0,"x_max":0,"o":"m 508 1297 l 317 1297 l 167 1071 l 322 1071 z "},"˘":{"ha":650,"x_min":0,"x_max":0,"o":"m 563 1300 b 463 1193 551 1233 521 1193 b 374 1300 404 1193 374 1232 l 231 1300 b 453 1057 231 1150 307 1057 b 708 1300 611 1057 685 1151 z "},"ˇ":{"ha":592,"x_min":0,"x_max":0,"o":"m 300 1071 l 500 1071 l 671 1311 l 508 1311 l 408 1167 l 353 1311 l 204 1311 z "},"¸":{"ha":386,"x_min":0,"x_max":0,"o":"m -60 -293 b 56 -319 -35 -307 8 -319 b 242 -162 168 -319 242 -258 b 138 -58 242 -92 185 -58 b 93 -65 118 -58 104 -61 l 144 13 l 151 57 l 93 58 l 3 -85 l 14 -137 b 82 -126 33 -131 57 -126 b 135 -171 115 -126 135 -142 b 49 -232 135 -210 100 -232 b -46 -206 15 -232 -15 -221 z "},"ˆ":{"ha":592,"x_min":0,"x_max":0,"o":"m 333 1071 l 433 1215 l 489 1071 l 638 1071 l 542 1311 l 342 1311 l 171 1071 z "},"¨":{"ha":633,"x_min":0,"x_max":0,"o":"m 293 1081 b 415 1203 358 1081 415 1138 b 326 1293 415 1256 379 1293 b 204 1169 260 1293 204 1238 b 293 1081 204 1115 239 1081 z m 560 1081 b 682 1203 626 1081 682 1138 b 593 1293 682 1257 646 1293 b 472 1169 528 1293 472 1238 b 560 1081 472 1115 506 1081 z "},"˙":{"ha":338,"x_min":0,"x_max":0,"o":"m 281 1081 b 410 1210 350 1081 410 1140 b 317 1304 410 1267 372 1304 b 188 1175 247 1304 188 1246 b 281 1081 188 1117 224 1081 z "},"`":{"ha":433,"x_min":0,"x_max":0,"o":"m 479 1071 l 403 1297 l 225 1297 l 339 1071 z "},"˝":{"ha":697,"x_min":0,"x_max":0,"o":"m 499 1297 l 331 1297 l 168 1071 l 314 1071 z m 739 1297 l 571 1297 l 408 1071 l 553 1071 z "},"¯":{"ha":569,"x_min":0,"x_max":0,"o":"m 204 1108 l 597 1108 l 619 1250 l 226 1250 z "},"˛":{"ha":356,"x_min":0,"x_max":0,"o":"m 129 0 b -19 -182 40 -32 -19 -104 b 115 -304 -19 -250 29 -304 b 196 -290 147 -304 171 -300 l 218 -157 b 174 -167 201 -164 183 -167 b 125 -121 143 -167 125 -146 b 251 0 125 -75 174 -26 z "},"˚":{"ha":494,"x_min":0,"x_max":0,"o":"m 361 1047 b 576 1261 485 1047 576 1139 b 401 1429 576 1360 503 1429 b 189 1211 281 1429 189 1336 b 361 1047 189 1114 258 1047 z m 372 1153 b 301 1226 329 1153 301 1182 b 392 1324 301 1283 339 1324 b 464 1251 435 1324 464 1294 b 372 1153 464 1194 426 1153 z "},"˜":{"ha":649,"x_min":0,"x_max":0,"o":"m 296 1074 b 360 1160 304 1135 321 1160 b 553 1074 425 1160 450 1074 b 724 1296 654 1074 714 1151 l 603 1296 b 540 1210 596 1238 581 1210 b 346 1296 468 1210 444 1296 b 176 1074 249 1296 182 1208 z "},"":{"ha":2514,"x_min":0,"x_max":0,"o":"m 182 0 l 482 0 l 482 972 l 182 972 z m 544 689 l 844 689 l 844 972 l 544 972 z m 906 0 l 1207 0 l 1207 972 l 906 972 z m 1268 689 l 1568 689 l 1568 972 l 1268 972 z m 1629 0 l 1931 0 l 1931 972 l 1629 972 z m 1992 689 l 2292 689 l 2292 972 l 1992 972 z m 1992 343 l 2292 343 l 2292 628 l 1992 628 z "},"ı":{"ha":367,"x_min":0,"x_max":0,"o":"m 25 0 l 232 0 l 342 694 l 135 694 z "},"ȷ":{"ha":364,"x_min":0,"x_max":0,"o":"m -172 -336 b -50 -356 -131 -350 -96 -356 b 214 -96 96 -356 186 -268 l 339 694 l 132 694 l 11 -69 b -67 -161 1 -135 -19 -161 b -121 -153 -85 -161 -100 -160 z "},"̵":{"ha":876,"x_min":0,"x_max":0,"o":"m 94 921 l 75 800 l 581 800 l 600 921 z "},"̷":{"ha":392,"x_min":0,"x_max":0,"o":"m 38 408 l 407 575 l 429 719 l 61 554 z "}}}
